# Blender v2.79 (sub 0) OBJ File: 'stage.blend'
# www.blender.org
o 02bluebeat.001
v -0.043100 -0.187212 -0.077887
v -0.054256 -0.182761 -0.077887
v -0.122991 -0.108034 -0.077887
v -0.125322 -0.098012 -0.077887
v -0.122263 -0.091470 -0.077887
v -0.076722 -0.020016 -0.077887
v 0.134405 -0.020446 -0.077887
v 0.120053 -0.044296 -0.077887
v -0.034884 -0.184659 -0.077887
v -0.071410 0.000019 -0.077887
v 0.138169 0.000019 -0.077887
v -0.029851 -0.124130 -0.077887
v -0.036235 -0.123309 -0.077887
v -0.066329 -0.093495 -0.077887
v -0.066652 -0.086913 -0.077887
v -0.021928 -0.019591 -0.077887
v 0.081402 -0.012397 -0.077887
v 0.074881 -0.023866 -0.077887
v -0.018570 0.000019 -0.077887
v 0.082354 0.000019 -0.077887
v -0.072433 -0.009999 -0.077887
v -0.043100 -0.187212 0.074877
v -0.054256 -0.182761 0.074877
v -0.122991 -0.108034 0.074877
v -0.125322 -0.098012 0.074877
v -0.122263 -0.091470 0.074877
v -0.076722 -0.020016 0.074877
v 0.134405 -0.020446 0.074877
v 0.120053 -0.044296 0.074877
v -0.034884 -0.184659 0.074877
v -0.071410 0.000019 0.074877
v 0.138169 0.000019 0.074877
v -0.029851 -0.124130 0.074877
v -0.036235 -0.123309 0.074877
v -0.066329 -0.093495 0.074877
v -0.066652 -0.086913 0.074877
v -0.021928 -0.019591 0.074877
v 0.081402 -0.012397 0.074877
v 0.074881 -0.023866 0.074877
v -0.018570 0.000019 0.074877
v 0.082354 0.000019 0.074877
v -0.072433 -0.009999 0.074877
vt 0.979763 0.943326
vt 0.976682 0.942958
vt 0.979763 0.942958
vt 0.979763 0.943724
vt 0.976682 0.943326
vt 0.979763 0.923803
vt 0.976682 0.924564
vt 0.976682 0.923803
vt 0.977039 0.915554
vt 0.979370 0.923582
vt 0.977039 0.923582
vt 0.977039 0.951381
vt 0.979370 0.951737
vt 0.977039 0.951737
vt 0.979763 0.951614
vt 0.976682 0.951175
vt 0.979763 0.951175
vt 0.977039 0.924312
vt 0.979370 0.925002
vt 0.977039 0.925002
vt 0.979370 0.949035
vt 0.979370 0.951381
vt 0.976682 0.947463
vt 0.979763 0.947463
vt 0.979763 0.922786
vt 0.976682 0.922786
vt 0.977039 0.948671
vt 0.977039 0.949035
vt 0.976682 0.947087
vt 0.979763 0.947087
vt 0.979763 0.946822
vt 0.976682 0.943724
vt 0.979370 0.944195
vt 0.979370 0.948671
vt 0.979370 0.924312
vt 0.976682 0.946822
vt 0.977039 0.944195
vt 0.979370 0.943094
vt 0.979763 0.915142
vt 0.976682 0.915142
vt 0.976682 0.914827
vt 0.979763 0.914827
vt 0.977039 0.943094
vt 0.979763 0.943326
vt 0.979763 0.942958
vt 0.977039 0.948671
vt 0.979763 0.943326
vt 0.977039 0.944195
vt 0.977039 0.948671
vt 0.979763 0.946822
vt 0.979763 0.943724
vt 0.977039 0.948671
vt 0.979763 0.947087
vt 0.979763 0.946822
vt 0.977039 0.951381
vt 0.979763 0.947087
vt 0.977039 0.949035
vt 0.979763 0.947463
vt 0.977039 0.951737
vt 0.979763 0.951175
vt 0.979763 0.914827
vt 0.979763 0.923803
vt 0.979763 0.922786
vt 0.977039 0.924312
vt 0.979763 0.924564
vt 0.979763 0.923803
vt 0.977039 0.944195
vt 0.979763 0.943724
vt 0.977039 0.949035
vt 0.977039 0.923582
vt 0.977039 0.924312
vt 0.979763 0.915142
vt 0.979763 0.922786
vt 0.977039 0.925002
vt 0.976682 0.915142
vt 0.979370 0.923582
vt 0.979370 0.915554
vt 0.976682 0.923803
vt 0.976682 0.924564
vt 0.979370 0.925002
vt 0.976682 0.922786
vt 0.976682 0.923803
vt 0.979370 0.924312
vt 0.976682 0.915142
vt 0.976682 0.922786
vt 0.979370 0.951381
vt 0.976682 0.947463
vt 0.979370 0.951737
vt 0.979370 0.949035
vt 0.976682 0.947087
vt 0.979370 0.951737
vt 0.979370 0.951381
vt 0.976682 0.947463
vt 0.979370 0.948671
vt 0.976682 0.947087
vt 0.979370 0.949035
vt 0.976682 0.943724
vt 0.976682 0.946822
vt 0.979370 0.948671
vt 0.976682 0.943326
vt 0.976682 0.943724
vt 0.979370 0.943094
vt 0.976682 0.943326
vt 0.979370 0.944195
vt 0.976682 0.951175
vt 0.976682 0.951614
vt 0.979370 0.924312
vt 0.979370 0.923582
vt 0.976682 0.914827
vt 0.976682 0.946822
vt 0.979370 0.944195
vt 0.976682 0.942958
vt 0.378245 0.916909
vt 0.378602 0.917045
vt 0.378245 0.917278
vt 0.381327 0.898516
vt 0.378245 0.898516
vt 0.381327 0.897755
vt 0.979763 0.924564
vt 0.979370 0.915554
vt 0.976682 0.951614
vt 0.977039 0.943094
vt 0.378602 0.917045
vt 0.380934 0.898954
vn -0.9948 0.1016 0.0000
vn -0.9193 0.3936 0.0000
vn 0.9835 -0.1809 -0.0000
vn -0.6915 0.7223 0.0000
vn 0.1275 0.9918 0.0000
vn -0.3706 -0.9288 0.0000
vn -0.9971 0.0764 0.0000
vn 0.7038 0.7104 0.0000
vn -0.7360 -0.6770 0.0000
vn 0.8568 -0.5156 0.0000
vn 0.9988 0.0490 0.0000
vn -0.9740 -0.2266 0.0000
vn -0.8433 0.5375 0.0000
vn 0.8330 -0.5533 0.0000
vn -0.8693 0.4943 0.0000
vn -0.9058 0.4236 0.0000
vn 0.9857 -0.1688 -0.0000
vn 0.6714 -0.7411 0.0000
vn 0.2967 -0.9550 0.0000
vn 0.0000 -0.0000 -1.0000
vn 0.0000 0.0000 1.0000
vn 0.0000 1.0000 0.0000
s off
f 21/1/1 31/2/1 10/3/1
f 6/4/2 42/5/2 21/1/2
f 7/6/3 32/7/3 28/8/3
f 12/9/4 39/10/4 18/11/4
f 13/12/5 33/13/5 12/14/5
f 1/15/6 23/16/6 2/17/6
f 17/18/7 41/19/7 20/20/7
f 13/12/8 35/21/8 34/22/8
f 2/17/9 24/23/9 3/24/9
f 8/25/10 28/8/10 29/26/10
f 15/27/11 35/21/11 14/28/11
f 3/24/12 25/29/12 4/30/12
f 5/31/13 27/32/13 6/4/13
f 15/27/14 37/33/14 36/34/14
f 18/11/15 38/35/15 17/18/15
f 4/30/16 26/36/16 5/31/16
f 16/37/17 40/38/17 37/33/17
f 9/39/18 29/26/18 30/40/18
f 9/39/19 22/41/19 1/42/19
f 10/43/20 16/44/20 21/45/20
f 16/46/20 6/47/20 21/48/20
f 6/49/20 15/50/20 5/51/20
f 5/52/20 14/53/20 4/54/20
f 14/55/20 3/56/20 4/57/20
f 2/58/20 13/59/20 1/60/20
f 1/60/20 13/59/20 9/61/20
f 8/25/20 17/62/20 7/63/20
f 7/64/20 20/65/20 11/66/20
f 10/43/20 19/67/20 16/44/20
f 16/46/20 15/68/20 6/47/20
f 5/52/20 15/69/20 14/53/20
f 13/59/20 2/58/20 14/55/20
f 13/59/20 12/70/20 9/61/20
f 18/71/20 8/72/20 12/70/20
f 18/71/20 17/73/20 8/72/20
f 7/64/20 17/74/20 20/65/20
f 2/58/20 3/56/20 14/55/20
f 8/72/20 9/61/20 12/70/20
f 22/75/21 30/76/21 39/77/21
f 32/7/21 41/78/21 28/79/21
f 28/80/21 38/81/21 29/82/21
f 29/83/21 39/84/21 30/85/21
f 33/86/21 34/87/21 22/88/21
f 34/89/21 35/90/21 23/91/21
f 24/92/21 35/90/21 25/93/21
f 35/94/21 26/95/21 25/96/21
f 26/36/21 36/97/21 27/98/21
f 27/99/21 37/100/21 42/101/21
f 37/102/21 31/103/21 42/104/21
f 35/90/21 24/105/21 23/91/21
f 34/87/21 23/106/21 22/88/21
f 28/80/21 41/107/21 38/81/21
f 29/83/21 38/108/21 39/84/21
f 33/109/21 22/75/21 39/77/21
f 35/94/21 36/110/21 26/95/21
f 27/99/21 36/111/21 37/100/21
f 37/102/21 40/112/21 31/103/21
f 40/113/22 10/114/22 31/115/22
f 20/116/22 32/117/22 11/118/22
f 21/1/1 42/5/1 31/2/1
f 6/4/2 27/32/2 42/5/2
f 7/6/3 11/119/3 32/7/3
f 12/9/4 33/120/4 39/10/4
f 13/12/5 34/22/5 33/13/5
f 1/15/6 22/121/6 23/16/6
f 17/18/7 38/35/7 41/19/7
f 13/12/8 14/28/8 35/21/8
f 2/17/9 23/16/9 24/23/9
f 8/25/10 7/6/10 28/8/10
f 15/27/11 36/34/11 35/21/11
f 3/24/12 24/23/12 25/29/12
f 5/31/13 26/36/13 27/32/13
f 15/27/14 16/37/14 37/33/14
f 18/11/15 39/10/15 38/35/15
f 4/30/16 25/29/16 26/36/16
f 16/37/17 19/122/17 40/38/17
f 9/39/18 8/25/18 29/26/18
f 9/39/19 30/40/19 22/41/19
f 40/113/22 19/123/22 10/114/22
f 20/116/22 41/124/22 32/117/22
o 02bluebeat.002
v -0.043100 0.187187 -0.077888
v -0.054256 0.182736 -0.077888
v -0.122991 0.108010 -0.077887
v -0.125322 0.097987 -0.077887
v -0.122263 0.091445 -0.077887
v -0.076722 0.019992 -0.077887
v 0.134405 0.020422 -0.077887
v 0.120053 0.044272 -0.077887
v -0.034884 0.184634 -0.077888
v -0.029851 0.124105 -0.077888
v -0.036235 0.123285 -0.077888
v -0.066329 0.093470 -0.077887
v -0.066652 0.086889 -0.077887
v -0.021928 0.019567 -0.077887
v 0.081402 0.012372 -0.077887
v 0.074881 0.023841 -0.077887
v -0.072433 0.009974 -0.077887
v -0.071410 -0.000043 -0.077887
v 0.138169 -0.000043 -0.077887
v -0.018570 -0.000043 -0.077887
v 0.082354 -0.000043 -0.077887
v -0.043100 0.187187 0.074877
v -0.054256 0.182736 0.074877
v -0.122991 0.108010 0.074877
v -0.125322 0.097987 0.074877
v -0.122263 0.091445 0.074877
v -0.076722 0.019992 0.074877
v 0.134405 0.020422 0.074877
v 0.120053 0.044272 0.074877
v -0.034884 0.184634 0.074877
v -0.029851 0.124105 0.074877
v -0.036235 0.123285 0.074877
v -0.066329 0.093470 0.074877
v -0.066652 0.086889 0.074877
v -0.021928 0.019567 0.074877
v 0.081402 0.012372 0.074877
v 0.074881 0.023841 0.074877
v -0.072433 0.009974 0.074877
v -0.071410 -0.000043 0.074877
v 0.138169 -0.000043 0.074877
v -0.018570 -0.000043 0.074877
v 0.082354 -0.000043 0.074877
vt 0.973464 0.917759
vt 0.970382 0.917391
vt 0.973464 0.917391
vt 0.973464 0.899366
vt 0.970382 0.900127
vt 0.970382 0.899366
vt 0.970382 0.916993
vt 0.973464 0.916993
vt 0.973464 0.909542
vt 0.970382 0.909103
vt 0.973464 0.909103
vt 0.970739 0.909252
vt 0.973071 0.909608
vt 0.970739 0.909608
vt 0.973464 0.913254
vt 0.970382 0.909542
vt 0.970739 0.901223
vt 0.973071 0.909252
vt 0.970739 0.911954
vt 0.973071 0.911954
vt 0.973464 0.913631
vt 0.970382 0.913254
vt 0.970739 0.899804
vt 0.973071 0.900493
vt 0.970739 0.900493
vt 0.973071 0.912318
vt 0.970739 0.912318
vt 0.970382 0.913895
vt 0.973464 0.913895
vt 0.973464 0.900127
vt 0.970382 0.901144
vt 0.970382 0.913631
vt 0.973071 0.901223
vt 0.973464 0.901144
vt 0.970382 0.908788
vt 0.970739 0.916794
vt 0.973071 0.916794
vt 0.973464 0.908788
vt 0.970739 0.917895
vt 0.973071 0.917895
vt 0.970739 0.909252
vt 0.970739 0.909608
vt 0.973464 0.909542
vt 0.973464 0.909103
vt 0.973464 0.901144
vt 0.970739 0.900493
vt 0.973464 0.899366
vt 0.970739 0.899804
vt 0.970739 0.901223
vt 0.973464 0.900127
vt 0.970739 0.900493
vt 0.970739 0.909252
vt 0.970739 0.901223
vt 0.973464 0.908788
vt 0.970739 0.909608
vt 0.973464 0.913254
vt 0.973464 0.909542
vt 0.973464 0.913631
vt 0.973464 0.913254
vt 0.970739 0.912318
vt 0.973464 0.913631
vt 0.970739 0.911954
vt 0.970739 0.916794
vt 0.973464 0.913895
vt 0.970739 0.912318
vt 0.973464 0.917391
vt 0.973464 0.916993
vt 0.970739 0.917895
vt 0.973464 0.917391
vt 0.970739 0.916794
vt 0.973464 0.900127
vt 0.973464 0.901144
vt 0.973464 0.909103
vt 0.970739 0.911954
vt 0.973464 0.913895
vt 0.973464 0.916993
vt 0.973464 0.917759
vt 0.973071 0.917895
vt 0.970382 0.916993
vt 0.970382 0.917391
vt 0.973071 0.916794
vt 0.970382 0.913895
vt 0.970382 0.916993
vt 0.973071 0.912318
vt 0.970382 0.913631
vt 0.970382 0.913895
vt 0.973071 0.911954
vt 0.970382 0.913254
vt 0.970382 0.913631
vt 0.973071 0.909608
vt 0.970382 0.913254
vt 0.973071 0.911954
vt 0.970382 0.901144
vt 0.973071 0.901223
vt 0.973071 0.900493
vt 0.970382 0.909542
vt 0.973071 0.909252
vt 0.970382 0.909103
vt 0.973071 0.901223
vt 0.970382 0.908788
vt 0.973071 0.900493
vt 0.970382 0.899366
vt 0.970382 0.900127
vt 0.973071 0.916794
vt 0.973071 0.916794
vt 0.973071 0.912318
vt 0.973071 0.911954
vt 0.970382 0.909542
vt 0.973071 0.909608
vt 0.970382 0.900127
vt 0.973071 0.899804
vt 0.970382 0.917759
vt 0.970382 0.901144
vt 0.396614 0.907391
vt 0.396221 0.906794
vt 0.396221 0.906794
vt 0.393533 0.890127
vt 0.393890 0.890493
vt 0.393890 0.889804
vt 0.970382 0.917759
vt 0.973071 0.899804
vt 0.393890 0.907895
vt 0.396221 0.889804
vn -0.9948 -0.1016 -0.0000
vn 0.9835 0.1809 0.0000
vn -0.9193 -0.3936 -0.0000
vn -0.3706 0.9288 0.0000
vn 0.1275 -0.9918 0.0000
vn -0.7360 0.6770 0.0000
vn -0.6915 -0.7223 0.0000
vn 0.7038 -0.7104 0.0000
vn -0.9740 0.2266 0.0000
vn -0.9971 -0.0764 -0.0000
vn 0.9988 -0.0490 0.0000
vn -0.8433 -0.5375 0.0000
vn 0.8568 0.5156 0.0000
vn -0.9058 -0.4236 0.0000
vn -0.8693 -0.4943 0.0000
vn 0.6714 0.7411 0.0000
vn 0.8330 0.5533 0.0000
vn 0.2967 0.9550 0.0000
vn 0.9857 0.1688 0.0000
vn -0.0000 -0.0000 -1.0000
vn 0.0000 0.0000 1.0000
vn 0.0000 -1.0000 -0.0000
s off
f 60/125/23 80/126/23 59/127/23
f 61/128/24 70/129/24 82/130/24
f 59/127/25 69/131/25 48/132/25
f 44/133/26 64/134/26 43/135/26
f 52/136/27 74/137/27 53/138/27
f 45/139/28 65/140/28 44/133/28
f 58/141/29 73/142/29 52/136/29
f 54/143/30 74/137/30 75/144/30
f 46/145/31 66/146/31 45/139/31
f 63/147/32 78/148/32 57/149/32
f 54/143/33 76/150/33 55/151/33
f 48/132/34 68/152/34 47/153/34
f 49/154/35 71/155/35 70/129/35
f 47/153/36 67/156/36 46/145/36
f 57/149/37 79/157/37 58/141/37
f 50/158/38 72/159/38 71/155/38
f 56/160/39 76/150/39 77/161/39
f 43/135/40 72/159/40 51/162/40
f 62/163/41 77/161/41 83/164/41
f 43/165/42 52/166/42 53/167/42
f 52/168/42 51/169/42 50/158/42
f 63/170/42 49/171/42 61/172/42
f 57/173/42 50/174/42 49/175/42
f 58/176/42 52/168/42 50/158/42
f 51/177/42 52/168/42 43/178/42
f 44/179/42 54/180/42 45/181/42
f 45/139/42 54/182/42 46/183/42
f 54/184/42 47/185/42 46/186/42
f 55/187/42 48/188/42 47/189/42
f 48/132/42 56/190/42 59/191/42
f 56/192/42 60/193/42 59/194/42
f 63/170/42 57/195/42 49/171/42
f 57/173/42 58/196/42 50/174/42
f 44/197/42 43/165/42 53/167/42
f 44/179/42 53/198/42 54/180/42
f 54/184/42 55/199/42 47/185/42
f 55/187/42 56/200/42 48/188/42
f 56/192/42 62/201/42 60/193/42
f 80/202/43 77/203/43 69/204/43
f 69/205/43 76/206/43 68/207/43
f 68/208/43 75/209/43 67/210/43
f 67/211/43 75/212/43 66/213/43
f 75/214/43 65/215/43 66/216/43
f 70/217/43 71/218/43 79/219/43
f 64/220/43 74/221/43 72/222/43
f 72/222/43 73/223/43 71/224/43
f 70/225/43 84/226/43 82/227/43
f 74/221/43 73/223/43 72/222/43
f 83/228/43 77/203/43 81/229/43
f 69/205/43 77/230/43 76/206/43
f 68/208/43 76/231/43 75/209/43
f 75/214/43 74/232/43 65/215/43
f 64/220/43 65/233/43 74/221/43
f 78/234/43 70/217/43 79/219/43
f 70/225/43 78/235/43 84/226/43
f 77/203/43 80/236/43 81/229/43
f 73/223/43 79/237/43 71/224/43
f 60/238/44 83/239/44 81/240/44
f 82/241/44 63/242/44 61/243/44
f 60/125/23 81/244/23 80/126/23
f 61/128/24 49/154/24 70/129/24
f 59/127/25 80/126/25 69/131/25
f 44/133/26 65/140/26 64/134/26
f 52/136/27 73/142/27 74/137/27
f 45/139/28 66/146/28 65/140/28
f 58/141/29 79/157/29 73/142/29
f 54/143/30 53/138/30 74/137/30
f 46/145/31 67/156/31 66/146/31
f 63/147/32 84/245/32 78/148/32
f 54/143/33 75/144/33 76/150/33
f 48/132/34 69/131/34 68/152/34
f 49/154/35 50/158/35 71/155/35
f 47/153/36 68/152/36 67/156/36
f 57/149/37 78/148/37 79/157/37
f 50/158/38 51/162/38 72/159/38
f 56/160/39 55/151/39 76/150/39
f 43/135/40 64/134/40 72/159/40
f 62/163/41 56/160/41 77/161/41
f 60/238/44 62/246/44 83/239/44
f 82/241/44 84/247/44 63/242/44
