# Blender v2.79 (sub 0) OBJ File: 'cube.blend'
# www.blender.org
o block
v -0.147689 -0.111214 0.111214
v -0.144271 -0.126107 0.110872
v -0.144271 -0.110872 0.126107
v -0.141146 -0.124740 0.124740
v -0.147689 0.111214 0.111214
v -0.144271 0.110872 0.126107
v -0.144271 0.126107 0.110872
v -0.141146 0.124740 0.124740
v -0.147689 0.111214 -0.111214
v -0.144271 0.126107 -0.110872
v -0.144271 0.110872 -0.126107
v -0.141146 0.124740 -0.124740
v -0.147689 -0.111214 -0.111214
v -0.144271 -0.110872 -0.126107
v -0.144271 -0.126107 -0.110872
v -0.141146 -0.124740 -0.124740
v -0.111214 -0.111214 -0.147689
v -0.110872 -0.126107 -0.144271
v -0.126107 -0.110872 -0.144271
v -0.124740 -0.124740 -0.141146
v -0.111214 0.111214 -0.147689
v -0.126107 0.110872 -0.144271
v -0.110872 0.126107 -0.144271
v -0.124740 0.124740 -0.141146
v 0.111214 0.111214 -0.147689
v 0.110872 0.126107 -0.144271
v 0.126107 0.110872 -0.144271
v 0.124740 0.124740 -0.141146
v 0.111214 -0.111214 -0.147689
v 0.126107 -0.110872 -0.144271
v 0.110872 -0.126107 -0.144271
v 0.124740 -0.124740 -0.141146
v 0.147689 -0.111214 -0.111214
v 0.144271 -0.126107 -0.110872
v 0.144271 -0.110872 -0.126107
v 0.141146 -0.124740 -0.124740
v 0.147689 0.111214 -0.111214
v 0.144271 0.110872 -0.126107
v 0.144271 0.126107 -0.110872
v 0.141146 0.124740 -0.124740
v 0.147689 0.111214 0.111214
v 0.144271 0.126107 0.110872
v 0.144271 0.110872 0.126107
v 0.141146 0.124740 0.124740
v 0.147689 -0.111214 0.111214
v 0.144271 -0.110872 0.126107
v 0.144271 -0.126107 0.110872
v 0.141146 -0.124740 0.124740
v 0.111214 -0.111214 0.147689
v 0.110872 -0.126107 0.144271
v 0.126107 -0.110872 0.144271
v 0.124740 -0.124740 0.141146
v 0.111214 0.111214 0.147689
v 0.126107 0.110872 0.144271
v 0.110872 0.126107 0.144271
v 0.124740 0.124740 0.141146
v -0.111214 0.111214 0.147689
v -0.110872 0.126107 0.144271
v -0.126107 0.110872 0.144271
v -0.124740 0.124740 0.141146
v -0.111214 -0.111214 0.147689
v -0.126107 -0.110872 0.144271
v -0.110872 -0.126107 0.144271
v -0.124740 -0.124740 0.141146
v -0.111214 -0.147689 -0.111214
v -0.126107 -0.144271 -0.110872
v -0.110872 -0.144271 -0.126107
v -0.124740 -0.141146 -0.124740
v 0.111214 -0.147689 -0.111214
v 0.110872 -0.144271 -0.126107
v 0.126107 -0.144271 -0.110872
v 0.124740 -0.141146 -0.124740
v 0.111214 -0.147689 0.111214
v 0.126107 -0.144271 0.110872
v 0.110872 -0.144271 0.126107
v 0.124740 -0.141146 0.124740
v -0.111214 -0.147689 0.111214
v -0.110872 -0.144271 0.126107
v -0.126107 -0.144271 0.110872
v -0.124740 -0.141146 0.124740
v 0.111214 0.147689 -0.111214
v 0.126107 0.144271 -0.110872
v 0.110872 0.144271 -0.126107
v 0.124740 0.141146 -0.124740
v -0.111214 0.147689 -0.111214
v -0.110872 0.144271 -0.126107
v -0.126107 0.144271 -0.110872
v -0.124740 0.141146 -0.124740
v -0.111214 0.147689 0.111214
v -0.126107 0.144271 0.110872
v -0.110872 0.144271 0.126107
v -0.124740 0.141146 0.124740
v 0.111214 0.147689 0.111214
v 0.110872 0.144271 0.126107
v 0.126107 0.144271 0.110872
v 0.124740 0.141146 0.124740
v -0.134961 -0.134961 -0.123828
v -0.137451 -0.137451 -0.110645
v -0.137451 -0.137451 0.110645
v -0.134961 -0.134961 0.123828
v -0.134961 -0.123828 0.134961
v -0.137451 -0.110645 0.137451
v -0.137451 0.110645 0.137451
v -0.134961 0.123828 0.134961
v -0.134961 0.134961 0.123828
v -0.137451 0.137451 0.110645
v -0.137451 0.137451 -0.110645
v -0.134961 0.134961 -0.123828
v -0.134961 0.123828 -0.134961
v -0.137451 0.110645 -0.137451
v -0.137451 -0.110645 -0.137451
v -0.134961 -0.123828 -0.134961
v 0.123828 -0.134961 -0.134961
v 0.110645 -0.137451 -0.137451
v -0.110645 -0.137451 -0.137451
v -0.123828 -0.134961 -0.134961
v -0.123828 0.134961 -0.134961
v -0.110645 0.137451 -0.137451
v 0.110645 0.137451 -0.137451
v 0.123828 0.134961 -0.134961
v 0.134961 0.123828 -0.134961
v 0.137451 0.110645 -0.137451
v 0.137451 -0.110645 -0.137451
v 0.134961 -0.123828 -0.134961
v 0.134961 -0.134961 0.123828
v 0.137451 -0.137451 0.110645
v 0.137451 -0.137451 -0.110645
v 0.134961 -0.134961 -0.123828
v 0.134961 0.134961 -0.123828
v 0.137451 0.137451 -0.110645
v 0.137451 0.137451 0.110645
v 0.134961 0.134961 0.123828
v 0.134961 0.123828 0.134961
v 0.137451 0.110645 0.137451
v 0.137451 -0.110645 0.137451
v 0.134961 -0.123828 0.134961
v -0.123828 -0.134961 0.134961
v -0.110645 -0.137451 0.137451
v 0.110645 -0.137451 0.137451
v 0.123828 -0.134961 0.134961
v 0.123828 0.134961 0.134961
v 0.110645 0.137451 0.137451
v -0.110645 0.137451 0.137451
v -0.123828 0.134961 0.134961
v -0.131597 -0.131597 0.131597
v -0.131597 0.131597 0.131597
v -0.131597 -0.131597 -0.131597
v -0.131597 0.131597 -0.131597
v 0.131597 -0.131597 0.131597
v 0.131597 0.131597 0.131597
v 0.131597 -0.131597 -0.131597
v 0.131597 0.131597 -0.131597
vn -0.1263 -0.7014 -0.7014
vn 0.1206 -0.3755 -0.9189
vn 0.1263 -0.7014 -0.7014
vn -0.9868 -0.1145 0.1145
vn -0.8501 -0.3723 0.3723
vn -0.9189 -0.1206 0.3755
vn -0.6551 -0.3764 0.6551
vn -0.7014 -0.1263 0.7014
vn -0.9189 -0.3755 0.1206
vn -0.6551 -0.6551 0.3764
vn -0.5773 -0.5773 0.5773
vn -0.9868 0.1145 0.1145
vn -0.9189 0.3755 -0.1206
vn -0.9868 0.1145 -0.1145
vn -0.1145 -0.9868 -0.1145
vn 0.1145 -0.9868 0.1145
vn -0.1145 -0.9868 0.1145
vn -0.3755 0.9189 0.1206
vn -0.7014 0.7014 -0.1263
vn -0.7014 0.7014 0.1263
vn -0.8501 0.3723 0.3723
vn -0.9189 0.3755 0.1206
vn -0.6551 0.6551 0.3764
vn -0.9189 0.1206 0.3755
vn -0.6551 0.3764 0.6551
vn -0.5773 0.5773 0.5773
vn -0.1145 -0.1145 -0.9868
vn 0.1145 0.1145 -0.9868
vn 0.1145 -0.1145 -0.9868
vn -0.3755 -0.9189 0.1206
vn -0.7014 -0.7014 0.1263
vn -0.9189 -0.3755 -0.1206
vn -0.7014 -0.7014 -0.1263
vn -0.8501 0.3723 -0.3723
vn -0.9189 0.1206 -0.3755
vn -0.6551 0.3764 -0.6551
vn -0.7014 0.1263 -0.7014
vn -0.6551 0.6551 -0.3764
vn -0.5773 0.5773 -0.5773
vn 0.9868 0.1145 -0.1145
vn 0.9189 -0.1206 -0.3755
vn 0.9189 0.1206 -0.3755
vn 0.7014 -0.1263 -0.7014
vn -0.9868 -0.1145 -0.1145
vn -0.8501 -0.3723 -0.3723
vn -0.6551 -0.6551 -0.3764
vn -0.9189 -0.1206 -0.3755
vn -0.6551 -0.3764 -0.6551
vn -0.5773 -0.5773 -0.5773
vn -0.1206 0.9189 0.3755
vn 0.1145 0.9868 0.1145
vn -0.1145 0.9868 0.1145
vn -0.3723 -0.3723 -0.8501
vn -0.3755 -0.1206 -0.9189
vn -0.7014 -0.1263 -0.7014
vn -0.1206 -0.3755 -0.9189
vn -0.3764 -0.6551 -0.6551
vn -0.1145 0.1145 -0.9868
vn -0.3723 0.3723 -0.8501
vn -0.1206 0.3755 -0.9189
vn -0.3764 0.6551 -0.6551
vn -0.1263 0.7014 -0.7014
vn -0.3755 0.1206 -0.9189
vn 0.3755 -0.9189 -0.1206
vn 0.1145 -0.9868 -0.1145
vn 0.3755 0.9189 0.1206
vn 0.7014 0.7014 -0.1263
vn 0.3755 0.9189 -0.1206
vn 0.3723 0.3723 -0.8501
vn 0.3755 0.1206 -0.9189
vn 0.6551 0.3764 -0.6551
vn 0.7014 0.1263 -0.7014
vn 0.1206 0.3755 -0.9189
vn 0.3764 0.6551 -0.6551
vn 0.5773 0.5773 -0.5773
vn -0.3755 0.9189 -0.1206
vn 0.3723 -0.3723 -0.8501
vn 0.3764 -0.6551 -0.6551
vn 0.3755 -0.1206 -0.9189
vn 0.6551 -0.3764 -0.6551
vn 0.5773 -0.5773 -0.5773
vn 0.1206 0.3755 0.9189
vn -0.1263 0.7014 0.7014
vn -0.1206 0.3755 0.9189
vn -0.1145 -0.1145 0.9868
vn 0.1145 0.1145 0.9868
vn -0.1145 0.1145 0.9868
vn 0.9868 -0.1145 -0.1145
vn 0.8501 -0.3723 -0.3723
vn 0.9189 -0.3755 -0.1206
vn 0.6551 -0.6551 -0.3764
vn 0.1145 0.9868 -0.1145
vn -0.1206 -0.3755 0.9189
vn 0.1263 -0.7014 0.7014
vn 0.1206 -0.3755 0.9189
vn 0.8501 0.3723 -0.3723
vn 0.9189 0.3755 -0.1206
vn 0.6551 0.6551 -0.3764
vn -0.7014 0.1263 0.7014
vn 0.9868 0.1145 0.1145
vn 0.8501 0.3723 0.3723
vn 0.9189 0.1206 0.3755
vn 0.6551 0.3764 0.6551
vn 0.7014 0.1263 0.7014
vn 0.9189 0.3755 0.1206
vn 0.6551 0.6551 0.3764
vn 0.5773 0.5773 0.5773
vn -0.1206 -0.9189 -0.3755
vn 0.1206 -0.9189 -0.3755
vn 0.9868 -0.1145 0.1145
vn 0.8501 -0.3723 0.3723
vn 0.9189 -0.3755 0.1206
vn 0.6551 -0.6551 0.3764
vn 0.7014 -0.7014 0.1263
vn 0.9189 -0.1206 0.3755
vn 0.6551 -0.3764 0.6551
vn 0.5773 -0.5773 0.5773
vn 0.1145 -0.1145 0.9868
vn 0.3723 -0.3723 0.8501
vn 0.3755 -0.1206 0.9189
vn 0.7014 -0.1263 0.7014
vn 0.3764 -0.6551 0.6551
vn 0.3723 0.3723 0.8501
vn 0.3764 0.6551 0.6551
vn 0.1263 0.7014 0.7014
vn 0.3755 0.1206 0.9189
vn 0.1206 0.9189 -0.3755
vn -0.1145 0.9868 -0.1145
vn 0.7014 -0.7014 -0.1263
vn -0.3723 0.3723 0.8501
vn -0.3755 0.1206 0.9189
vn -0.3764 0.6551 0.6551
vn 0.3755 -0.9189 0.1206
vn -0.3723 -0.3723 0.8501
vn -0.3764 -0.6551 0.6551
vn -0.1263 -0.7014 0.7014
vn -0.3755 -0.1206 0.9189
vn -0.3723 -0.8501 -0.3723
vn -0.3755 -0.9189 -0.1206
vn 0.3723 -0.8501 -0.3723
vn 0.1206 -0.9189 0.3755
vn -0.1206 -0.9189 0.3755
vn 0.3723 -0.8501 0.3723
vn -0.3723 -0.8501 0.3723
vn -0.1206 0.9189 -0.3755
vn 0.1263 0.7014 -0.7014
vn 0.3723 0.8501 -0.3723
vn -0.3723 0.8501 -0.3723
vn -0.3723 0.8501 0.3723
vn 0.1206 0.9189 0.3755
vn 0.3723 0.8501 0.3723
vn 0.7014 0.7014 0.1263
s 1
f 115//1 31//2 114//3
f 1//4 4//5 3//6
f 3//6 101//7 102//8
f 2//9 100//10 4//5
f 4//5 145//11 101//7
f 5//12 10//13 9//14
f 65//15 73//16 77//17
f 90//18 107//19 106//20
f 5//12 8//21 7//22
f 7//22 105//23 106//20
f 6//24 104//25 8//21
f 8//21 146//26 105//23
f 17//27 25//28 29//29
f 79//30 65//15 77//17
f 99//31 15//32 98//33
f 9//14 12//34 11//35
f 11//35 109//36 110//37
f 10//13 108//38 12//34
f 12//34 148//39 109//36
f 37//40 35//41 38//42
f 123//43 38//42 35//41
f 13//44 16//45 15//32
f 15//32 97//46 98//33
f 14//47 112//48 16//45
f 16//45 147//49 97//46
f 91//50 93//51 89//52
f 14//47 9//14 11//35
f 17//27 20//53 19//54
f 19//54 112//48 111//55
f 18//56 116//57 20//53
f 20//53 147//49 112//48
f 18//56 29//29 31//2
f 21//58 24//59 23//60
f 23//60 117//61 118//62
f 22//63 109//36 24//59
f 24//59 148//39 117//61
f 71//64 73//16 69//65
f 95//66 130//67 82//68
f 25//28 28//69 27//70
f 27//70 121//71 122//72
f 26//73 120//74 28//69
f 28//69 152//75 121//71
f 89//52 87//76 90//18
f 111//55 11//35 110//37
f 29//29 32//77 31//2
f 31//2 113//78 114//3
f 30//79 124//80 32//77
f 32//77 151//81 113//78
f 55//82 143//83 58//84
f 61//85 53//86 57//87
f 33//88 36//89 35//41
f 35//41 124//80 123//43
f 34//90 128//91 36//89
f 36//89 151//81 124//80
f 81//92 95//66 82//68
f 63//93 139//94 50//95
f 37//40 40//96 39//97
f 39//97 129//98 130//67
f 38//42 121//71 40//96
f 40//96 152//75 129//98
f 57//87 55//82 58//84
f 3//6 103//99 6//24
f 41//100 44//101 43//102
f 43//102 133//103 134//104
f 42//105 132//106 44//101
f 44//101 150//107 133//103
f 50//95 61//85 63//93
f 67//108 114//3 70//109
f 45//110 48//111 47//112
f 47//112 125//113 126//114
f 46//115 136//116 48//111
f 48//111 149//117 125//113
f 45//110 43//102 46//115
f 122//72 30//79 27//70
f 49//118 52//119 51//120
f 51//120 136//116 135//121
f 50//95 140//122 52//119
f 52//119 149//117 136//116
f 19//54 110//37 22//63
f 2//9 13//44 15//32
f 53//86 56//123 55//82
f 55//82 141//124 142//125
f 54//126 133//103 56//123
f 56//123 150//107 141//124
f 83//127 85//128 81//92
f 47//112 127//129 34//90
f 57//87 60//130 59//131
f 59//131 104//25 103//99
f 58//84 144//132 60//130
f 60//130 146//26 104//25
f 74//133 127//129 126//114
f 34//90 45//110 47//112
f 61//85 64//134 63//93
f 63//93 137//135 138//136
f 62//137 101//7 64//134
f 64//134 145//11 137//135
f 42//105 37//40 39//97
f 51//120 134//104 54//126
f 9//14 1//4 5//12
f 65//15 68//138 67//108
f 67//108 116//57 115//1
f 66//139 97//46 68//138
f 68//138 147//49 116//57
f 130//67 42//105 39//97
f 59//131 61//85 57//87
f 69//65 72//140 71//64
f 71//64 128//91 127//129
f 70//109 113//78 72//140
f 72//140 151//81 128//91
f 69//65 67//108 70//109
f 75//141 138//136 78//142
f 73//16 76//143 75//141
f 75//141 140//122 139//94
f 74//133 125//113 76//143
f 76//143 149//117 140//122
f 66//139 99//31 98//33
f 19//54 21//58 17//27
f 51//120 53//86 49//118
f 77//17 80//144 79//30
f 79//30 100//10 99//31
f 78//142 137//135 80//144
f 80//144 145//11 100//10
f 21//58 26//73 25//28
f 86//145 119//146 118//62
f 37//40 45//110 33//88
f 81//92 84//147 83//127
f 83//127 120//74 119//146
f 82//68 129//98 84//147
f 84//147 152//75 120//74
f 30//79 25//28 27//70
f 43//102 135//121 46//115
f 81//92 89//52 93//51
f 85//128 88//148 87//76
f 87//76 108//38 107//19
f 86//145 117//61 88//148
f 88//148 148//39 108//38
f 75//141 77//17 73//16
f 7//22 107//19 10//13
f 89//52 92//149 91//50
f 91//50 144//132 143//83
f 90//18 105//23 92//149
f 92//149 146//26 144//132
f 143//83 94//150 91//50
f 119//146 23//60 118//62
f 93//51 96//151 95//66
f 95//66 132//106 131//152
f 94//150 141//124 96//151
f 96//151 150//107 132//106
f 1//4 6//24 5//12
f 62//137 103//99 102//8
f 115//1 18//56 31//2
f 1//4 2//9 4//5
f 3//6 4//5 101//7
f 2//9 99//31 100//10
f 4//5 100//10 145//11
f 5//12 7//22 10//13
f 65//15 69//65 73//16
f 90//18 87//76 107//19
f 5//12 6//24 8//21
f 7//22 8//21 105//23
f 6//24 103//99 104//25
f 8//21 104//25 146//26
f 17//27 21//58 25//28
f 79//30 66//139 65//15
f 99//31 2//9 15//32
f 9//14 10//13 12//34
f 11//35 12//34 109//36
f 10//13 107//19 108//38
f 12//34 108//38 148//39
f 37//40 33//88 35//41
f 123//43 122//72 38//42
f 13//44 14//47 16//45
f 15//32 16//45 97//46
f 14//47 111//55 112//48
f 16//45 112//48 147//49
f 91//50 94//150 93//51
f 14//47 13//44 9//14
f 17//27 18//56 20//53
f 19//54 20//53 112//48
f 18//56 115//1 116//57
f 20//53 116//57 147//49
f 18//56 17//27 29//29
f 21//58 22//63 24//59
f 23//60 24//59 117//61
f 22//63 110//37 109//36
f 24//59 109//36 148//39
f 71//64 74//133 73//16
f 95//66 131//152 130//67
f 25//28 26//73 28//69
f 27//70 28//69 121//71
f 26//73 119//146 120//74
f 28//69 120//74 152//75
f 89//52 85//128 87//76
f 111//55 14//47 11//35
f 29//29 30//79 32//77
f 31//2 32//77 113//78
f 30//79 123//43 124//80
f 32//77 124//80 151//81
f 55//82 142//125 143//83
f 61//85 49//118 53//86
f 33//88 34//90 36//89
f 35//41 36//89 124//80
f 34//90 127//129 128//91
f 36//89 128//91 151//81
f 81//92 93//51 95//66
f 63//93 138//136 139//94
f 37//40 38//42 40//96
f 39//97 40//96 129//98
f 38//42 122//72 121//71
f 40//96 121//71 152//75
f 57//87 53//86 55//82
f 3//6 102//8 103//99
f 41//100 42//105 44//101
f 43//102 44//101 133//103
f 42//105 131//152 132//106
f 44//101 132//106 150//107
f 50//95 49//118 61//85
f 67//108 115//1 114//3
f 45//110 46//115 48//111
f 47//112 48//111 125//113
f 46//115 135//121 136//116
f 48//111 136//116 149//117
f 45//110 41//100 43//102
f 122//72 123//43 30//79
f 49//118 50//95 52//119
f 51//120 52//119 136//116
f 50//95 139//94 140//122
f 52//119 140//122 149//117
f 19//54 111//55 110//37
f 2//9 1//4 13//44
f 53//86 54//126 56//123
f 55//82 56//123 141//124
f 54//126 134//104 133//103
f 56//123 133//103 150//107
f 83//127 86//145 85//128
f 47//112 126//114 127//129
f 57//87 58//84 60//130
f 59//131 60//130 104//25
f 58//84 143//83 144//132
f 60//130 144//132 146//26
f 74//133 71//64 127//129
f 34//90 33//88 45//110
f 61//85 62//137 64//134
f 63//93 64//134 137//135
f 62//137 102//8 101//7
f 64//134 101//7 145//11
f 42//105 41//100 37//40
f 51//120 135//121 134//104
f 9//14 13//44 1//4
f 65//15 66//139 68//138
f 67//108 68//138 116//57
f 66//139 98//33 97//46
f 68//138 97//46 147//49
f 130//67 131//152 42//105
f 59//131 62//137 61//85
f 69//65 70//109 72//140
f 71//64 72//140 128//91
f 70//109 114//3 113//78
f 72//140 113//78 151//81
f 69//65 65//15 67//108
f 75//141 139//94 138//136
f 73//16 74//133 76//143
f 75//141 76//143 140//122
f 74//133 126//114 125//113
f 76//143 125//113 149//117
f 66//139 79//30 99//31
f 19//54 22//63 21//58
f 51//120 54//126 53//86
f 77//17 78//142 80//144
f 79//30 80//144 100//10
f 78//142 138//136 137//135
f 80//144 137//135 145//11
f 21//58 23//60 26//73
f 86//145 83//127 119//146
f 37//40 41//100 45//110
f 81//92 82//68 84//147
f 83//127 84//147 120//74
f 82//68 130//67 129//98
f 84//147 129//98 152//75
f 30//79 29//29 25//28
f 43//102 134//104 135//121
f 81//92 85//128 89//52
f 85//128 86//145 88//148
f 87//76 88//148 108//38
f 86//145 118//62 117//61
f 88//148 117//61 148//39
f 75//141 78//142 77//17
f 7//22 106//20 107//19
f 89//52 90//18 92//149
f 91//50 92//149 144//132
f 90//18 106//20 105//23
f 92//149 105//23 146//26
f 143//83 142//125 94//150
f 119//146 26//73 23//60
f 93//51 94//150 96//151
f 95//66 96//151 132//106
f 94//150 142//125 141//124
f 96//151 141//124 150//107
f 1//4 3//6 6//24
f 62//137 59//131 103//99
