# Blender v2.79 (sub 0) OBJ File: 'stage.blend'
# www.blender.org
v 1.504198 -13.735650 -39.715073
v 35.898457 -13.735650 19.857538
v -32.890064 -13.735650 19.857531
v 1.504198 31.579481 0.000000
v 1.504198 13.735650 -39.715073
v 35.898457 13.735650 19.857538
v -32.890064 13.735650 19.857531
v 1.504198 -31.579481 0.000000
v 1.504198 0.000001 -27.676876
v -22.464682 -0.000001 13.838437
v -12.039299 13.735650 7.819340
v 1.504198 13.735650 -15.638682
v 15.047691 -13.735654 7.819341
v 1.504198 -13.735654 -15.638682
v -12.039298 -13.735654 7.819339
v 25.473074 0.000000 13.838442
v 15.047694 13.735650 7.819343
vn 0.7932 0.4014 -0.4580
vn -0.0000 0.4014 0.9159
vn -0.7932 0.4014 -0.4580
vn 0.0000 -1.0000 -0.0000
vn 0.7932 -0.4014 -0.4580
vn -0.0000 -0.4014 0.9159
vn -0.7932 -0.4014 -0.4580
vn 0.0000 1.0000 0.0000
s 1
f 9//1 2//1 1//1
f 16//2 3//2 2//2
f 10//3 1//3 3//3
f 1//4 14//4 3//4
f 6//5 9//5 5//5
f 7//6 16//6 6//6
f 5//7 10//7 7//7
f 5//8 12//8 6//8
f 12//3 11//3 4//3
f 11//2 17//2 4//2
f 17//1 12//1 4//1
f 6//8 11//8 7//8
f 15//7 14//7 8//7
f 14//5 13//5 8//5
f 13//6 15//6 8//6
f 15//4 2//4 3//4
f 9//1 16//1 2//1
f 16//2 10//2 3//2
f 10//3 9//3 1//3
f 1//4 2//4 13//4
f 14//4 15//4 3//4
f 1//4 13//4 14//4
f 6//5 16//5 9//5
f 7//6 10//6 16//6
f 5//7 9//7 10//7
f 5//8 7//8 11//8
f 12//8 17//8 6//8
f 5//8 11//8 12//8
f 6//8 17//8 11//8
f 15//4 13//4 2//4
