# Blender v2.79 (sub 0) OBJ File: 'stage.blend'
# www.blender.org
v -0.062760 0.151516 -0.057612
v -0.115966 0.115966 -0.057612
v -0.151516 0.062760 -0.057612
v -0.043292 0.104515 -0.057612
v -0.079993 0.079993 -0.057612
v -0.104515 0.043292 -0.057612
v 0.000000 0.164000 -0.057612
v 0.062760 0.151516 -0.057612
v 0.115966 0.115966 -0.057612
v 0.151516 0.062760 -0.057612
v 0.000000 0.113127 -0.057612
v 0.043292 0.104515 -0.057612
v 0.079993 0.079993 -0.057612
v 0.104515 0.043292 -0.057612
v -0.062760 -0.151516 -0.057612
v -0.115966 -0.115966 -0.057612
v -0.151516 -0.062760 -0.057612
v -0.164000 0.000000 -0.057612
v -0.043292 -0.104515 -0.057612
v -0.079993 -0.079993 -0.057612
v -0.104515 -0.043292 -0.057612
v -0.113127 0.000000 -0.057612
v 0.000000 -0.164000 -0.057612
v 0.062760 -0.151516 -0.057612
v 0.115966 -0.115966 -0.057612
v 0.151516 -0.062760 -0.057612
v 0.164000 0.000000 -0.057612
v 0.000000 -0.113127 -0.057612
v 0.043292 -0.104515 -0.057612
v 0.079993 -0.079993 -0.057612
v 0.104515 -0.043292 -0.057612
v 0.113127 0.000000 -0.057612
v 0.000000 0.000000 -0.057612
vt 0.287997 0.484487
vt 0.003097 0.456111
vt 0.287992 0.475562
vt 0.287985 0.462204
vt 0.287976 0.446447
vt 0.287999 0.487621
vt 0.287997 0.484487
vt 0.287992 0.475562
vt 0.287985 0.462204
vt 0.287999 0.487621
vt 0.287997 0.484487
vt 0.287992 0.475562
vt 0.287985 0.462204
vt 0.287976 0.446447
vt 0.287997 0.484487
vt 0.287992 0.475562
vt 0.287985 0.462204
vt 0.008619 0.061798
vt 0.322707 0.072000
vt 0.008619 0.071291
vt 0.322707 0.053013
vt 0.322707 0.062506
vt 0.008619 0.044257
vt 0.008619 0.052305
vt 0.322707 0.080047
vt 0.008619 0.079339
vt 0.008619 0.071291
vt 0.322707 0.062506
vt 0.008619 0.061798
vt 0.008619 0.052305
vt 0.322707 0.044965
vt 0.008619 0.044257
vt 0.322707 0.072000
vt 0.008619 0.071291
vt 0.322707 0.062506
vt 0.008619 0.061798
vt 0.008619 0.052305
vt 0.322707 0.044965
vt 0.008619 0.079339
vt 0.322707 0.072000
vt 0.008619 0.061798
vt 0.322707 0.072000
vt 0.008619 0.071291
vt 0.322707 0.053013
vt 0.322707 0.062506
vt 0.008619 0.052305
vt 0.322707 0.080047
vt 0.322707 0.053013
vt 0.322707 0.053013
vn 0.0000 -0.0000 1.0000
s off
f 6/1/1 33/2/1 5/3/1
f 4/4/1 33/2/1 11/5/1
f 22/6/1 33/2/1 6/1/1
f 5/3/1 33/2/1 4/4/1
f 14/7/1 13/8/1 33/2/1
f 12/9/1 11/5/1 33/2/1
f 32/10/1 14/7/1 33/2/1
f 13/8/1 12/9/1 33/2/1
f 21/11/1 20/12/1 33/2/1
f 19/13/1 28/14/1 33/2/1
f 22/6/1 21/11/1 33/2/1
f 20/12/1 19/13/1 33/2/1
f 31/15/1 33/2/1 30/16/1
f 29/17/1 33/2/1 28/14/1
f 32/10/1 33/2/1 31/15/1
f 30/16/1 33/2/1 29/17/1
f 2/18/1 4/19/1 1/20/1
f 2/18/1 6/21/1 5/22/1
f 18/23/1 6/21/1 3/24/1
f 1/20/1 11/25/1 7/26/1
f 8/27/1 13/28/1 9/29/1
f 13/28/1 10/30/1 9/29/1
f 10/30/1 32/31/1 27/32/1
f 7/26/1 12/33/1 8/27/1
f 15/34/1 20/35/1 16/36/1
f 20/35/1 17/37/1 16/36/1
f 17/37/1 22/38/1 18/23/1
f 23/39/1 19/40/1 15/34/1
f 25/41/1 29/42/1 24/43/1
f 25/41/1 31/44/1 30/45/1
f 27/32/1 31/44/1 26/46/1
f 24/43/1 28/47/1 23/39/1
f 2/18/1 5/22/1 4/19/1
f 2/18/1 3/24/1 6/21/1
f 18/23/1 22/38/1 6/21/1
f 1/20/1 4/19/1 11/25/1
f 8/27/1 12/33/1 13/28/1
f 13/28/1 14/48/1 10/30/1
f 10/30/1 14/48/1 32/31/1
f 7/26/1 11/25/1 12/33/1
f 15/34/1 19/40/1 20/35/1
f 20/35/1 21/49/1 17/37/1
f 17/37/1 21/49/1 22/38/1
f 23/39/1 28/47/1 19/40/1
f 25/41/1 30/45/1 29/42/1
f 25/41/1 26/46/1 31/44/1
f 27/32/1 32/31/1 31/44/1
f 24/43/1 29/42/1 28/47/1
v 0.000000 0.120000 0.053918
v -0.023411 0.117694 0.053918
v -0.045922 0.110866 0.053918
v -0.066668 0.099776 0.053918
v -0.084853 0.084853 0.053918
v -0.099776 0.066668 0.053918
v -0.110866 0.045922 0.053918
v -0.117694 0.023411 0.053918
v -0.120000 0.000000 0.053918
v -0.117694 -0.023411 0.053918
v -0.110866 -0.045922 0.053918
v -0.099776 -0.066668 0.053918
v -0.084853 -0.084853 0.053918
v -0.066668 -0.099776 0.053918
v -0.045922 -0.110866 0.053918
v -0.023411 -0.117694 0.053918
v 0.000000 -0.120000 0.053918
v 0.023411 -0.117694 0.053918
v 0.045922 -0.110866 0.053918
v 0.066668 -0.099776 0.053918
v 0.084853 -0.084853 0.053918
v 0.099776 -0.066668 0.053918
v 0.110866 -0.045922 0.053918
v 0.117694 -0.023411 0.053918
v 0.120000 0.000000 0.053918
v 0.117694 0.023411 0.053918
v 0.110865 0.045922 0.053918
v 0.099776 0.066669 0.053918
v 0.084853 0.084853 0.053918
v 0.066668 0.099776 0.053918
v 0.045922 0.110866 0.053918
v 0.023411 0.117694 0.053918
v -0.000000 0.087832 0.053918
v -0.017045 0.086153 0.053918
v -0.033435 0.081181 0.053918
v -0.048540 0.073107 0.053918
v -0.061780 0.062242 0.053918
v -0.072646 0.049002 0.053918
v -0.080719 0.033897 0.053918
v -0.085691 0.017507 0.053918
v -0.087370 0.000462 0.053918
v -0.085691 -0.016583 0.053918
v -0.080719 -0.032973 0.053918
v -0.072646 -0.048078 0.053918
v -0.061780 -0.061318 0.053918
v -0.048540 -0.072184 0.053918
v -0.033435 -0.080258 0.053918
v -0.017045 -0.085230 0.053918
v 0.000000 -0.086908 0.053918
v 0.017045 -0.085229 0.053918
v 0.033435 -0.080258 0.053918
v 0.048540 -0.072184 0.053918
v 0.061780 -0.061318 0.053918
v 0.072646 -0.048078 0.053918
v 0.080719 -0.032973 0.053918
v 0.085691 -0.016583 0.053918
v 0.087370 0.000462 0.053918
v 0.085691 0.017507 0.053918
v 0.080719 0.033897 0.053918
v 0.072646 0.049002 0.053918
v 0.061780 0.062242 0.053918
v 0.048540 0.073107 0.053918
v 0.033435 0.081181 0.053918
v 0.017045 0.086153 0.053918
v -0.023411 0.117694 -0.055651
v -0.000000 0.120000 -0.055651
v -0.045922 0.110866 -0.055651
v -0.066668 0.099776 -0.055651
v -0.084853 0.084853 -0.055651
v -0.099776 0.066668 -0.055651
v -0.110866 0.045922 -0.055651
v -0.117694 0.023411 -0.055651
v -0.120000 0.000000 -0.055651
v -0.117694 -0.023411 -0.055651
v -0.110866 -0.045922 -0.055651
v -0.099776 -0.066668 -0.055651
v -0.084853 -0.084853 -0.055651
v -0.066668 -0.099776 -0.055651
v -0.045922 -0.110866 -0.055651
v -0.023411 -0.117694 -0.055651
v 0.000000 -0.120000 -0.055651
v 0.023411 -0.117694 -0.055651
v 0.045922 -0.110866 -0.055651
v 0.066668 -0.099776 -0.055651
v 0.084853 -0.084853 -0.055651
v 0.099776 -0.066668 -0.055651
v 0.110866 -0.045922 -0.055651
v 0.117694 -0.023411 -0.055651
v 0.120000 0.000000 -0.055651
v 0.117694 0.023411 -0.055651
v 0.110865 0.045922 -0.055651
v 0.099776 0.066669 -0.055651
v 0.084853 0.084853 -0.055651
v 0.066668 0.099776 -0.055651
v 0.045922 0.110866 -0.055651
v 0.023411 0.117694 -0.055651
v -0.017045 0.086153 -0.055651
v -0.000000 0.087832 -0.055651
v -0.033435 0.081181 -0.055651
v -0.048540 0.073107 -0.055651
v -0.061780 0.062242 -0.055651
v -0.072646 0.049002 -0.055651
v -0.080719 0.033897 -0.055651
v -0.085691 0.017507 -0.055651
v -0.087370 0.000462 -0.055651
v -0.085691 -0.016583 -0.055651
v -0.080719 -0.032973 -0.055651
v -0.072646 -0.048078 -0.055651
v -0.061780 -0.061318 -0.055651
v -0.048540 -0.072184 -0.055651
v -0.033435 -0.080258 -0.055651
v -0.017045 -0.085230 -0.055651
v 0.000000 -0.086908 -0.055651
v 0.017045 -0.085229 -0.055651
v 0.033435 -0.080258 -0.055651
v 0.048540 -0.072184 -0.055651
v 0.061780 -0.061318 -0.055651
v 0.072646 -0.048078 -0.055651
v 0.080719 -0.032973 -0.055651
v 0.085691 -0.016583 -0.055651
v 0.087370 0.000462 -0.055651
v 0.085691 0.017507 -0.055651
v 0.080719 0.033897 -0.055651
v 0.072646 0.049002 -0.055651
v 0.061780 0.062242 -0.055651
v 0.048540 0.073107 -0.055651
v 0.033435 0.081181 -0.055651
v 0.017045 0.086153 -0.055651
v -0.050594 -0.014358 0.054160
v -0.050594 0.013097 0.054160
v 0.049406 -0.014358 0.054160
v 0.049406 0.013097 0.054160
v -0.046465 -0.018728 0.054160
v 0.045278 -0.018728 0.054160
v 0.045278 0.017468 0.054160
v -0.046465 0.017468 0.054160
v -0.049038 0.015911 0.054160
v -0.049038 -0.017172 0.054160
v 0.047851 -0.017172 0.054160
v 0.047851 0.015911 0.054160
v -0.050594 -0.014358 -0.055950
v -0.050594 0.013097 -0.055950
v 0.049406 0.013097 -0.055950
v 0.049406 -0.014358 -0.055950
v 0.047851 -0.017172 -0.055950
v -0.049038 0.015911 -0.055950
v -0.049038 -0.017172 -0.055950
v -0.046465 -0.018728 -0.055950
v 0.045278 -0.018728 -0.055950
v 0.047851 0.015911 -0.055950
v 0.045278 0.017468 -0.055950
v -0.046465 0.017468 -0.055950
vt 0.130484 0.872419
vt 0.130359 0.871692
vt 0.130668 0.871822
vt 0.130059 0.872242
vt 0.130080 0.871505
vt 0.129677 0.871986
vt 0.129843 0.871268
vt 0.129353 0.871660
vt 0.129658 0.870989
vt 0.129099 0.871276
vt 0.129531 0.870679
vt 0.128925 0.870851
vt 0.129468 0.870351
vt 0.128839 0.870400
vt 0.129470 0.870017
vt 0.128842 0.869941
vt 0.129538 0.869691
vt 0.128936 0.869493
vt 0.129669 0.869384
vt 0.129116 0.869071
vt 0.129858 0.869108
vt 0.129374 0.868693
vt 0.130098 0.868875
vt 0.129701 0.868372
vt 0.130379 0.868692
vt 0.130084 0.868121
vt 0.130691 0.868566
vt 0.130508 0.867946
vt 0.131021 0.868500
vt 0.130958 0.867856
vt 0.131356 0.868499
vt 0.131868 0.867942
vt 0.131418 0.867853
vt 0.132293 0.868117
vt 0.131686 0.868561
vt 0.132676 0.868371
vt 0.131996 0.868687
vt 0.133002 0.868696
vt 0.132275 0.868871
vt 0.133258 0.869078
vt 0.132512 0.869107
vt 0.133434 0.869503
vt 0.132697 0.869386
vt 0.133523 0.869956
vt 0.132825 0.869695
vt 0.133521 0.870417
vt 0.132889 0.870024
vt 0.133428 0.870869
vt 0.132887 0.870360
vt 0.133249 0.871295
vt 0.132819 0.870689
vt 0.132989 0.871677
vt 0.132688 0.870999
vt 0.132660 0.872001
vt 0.132499 0.871278
vt 0.132274 0.872254
vt 0.132259 0.871514
vt 0.131846 0.872427
vt 0.131977 0.871699
vt 0.131394 0.872513
vt 0.131665 0.871826
vt 0.130934 0.872509
vt 0.131335 0.871890
vt 0.130998 0.871890
vt 0.129357 0.873403
vt 0.129375 0.874099
vt 0.128997 0.873643
vt 0.129152 0.874321
vt 0.128691 0.873949
vt 0.128977 0.874583
vt 0.128451 0.874309
vt 0.128857 0.874874
vt 0.128285 0.874708
vt 0.128796 0.875183
vt 0.128201 0.875132
vt 0.128796 0.875498
vt 0.128201 0.875565
vt 0.128857 0.875807
vt 0.128285 0.875989
vt 0.128977 0.876098
vt 0.128451 0.876388
vt 0.129152 0.876359
vt 0.128691 0.876748
vt 0.129375 0.876582
vt 0.128997 0.877054
vt 0.129637 0.876757
vt 0.129357 0.877294
vt 0.129928 0.876877
vt 0.129756 0.877460
vt 0.130237 0.876939
vt 0.130180 0.877544
vt 0.130551 0.876939
vt 0.130613 0.877544
vt 0.130860 0.876877
vt 0.131037 0.877460
vt 0.131436 0.877294
vt 0.131151 0.876757
vt 0.131796 0.877054
vt 0.131413 0.876582
vt 0.132102 0.876748
vt 0.131636 0.876359
vt 0.132342 0.876388
vt 0.131811 0.876098
vt 0.132508 0.875989
vt 0.131931 0.875807
vt 0.132592 0.875565
vt 0.131992 0.875498
vt 0.132592 0.875132
vt 0.131992 0.875183
vt 0.132508 0.874708
vt 0.131931 0.874874
vt 0.132342 0.874309
vt 0.131811 0.874583
vt 0.132102 0.873949
vt 0.131636 0.874321
vt 0.131796 0.873643
vt 0.131413 0.874099
vt 0.131436 0.873403
vt 0.131151 0.873924
vt 0.131037 0.873237
vt 0.130860 0.873803
vt 0.130613 0.873153
vt 0.130551 0.873742
vt 0.130180 0.873153
vt 0.130237 0.873742
vt 0.129756 0.873237
vt 0.129637 0.873924
vt 0.129949 0.870303
vt 0.130314 0.867337
vt 0.130000 0.869832
vt 0.129951 0.870065
vt 0.130885 0.867220
vt 0.131469 0.867215
vt 0.130094 0.869614
vt 0.132044 0.867325
vt 0.130230 0.869418
vt 0.132586 0.867546
vt 0.130403 0.869253
vt 0.133075 0.867868
vt 0.130608 0.869126
vt 0.133492 0.868280
vt 0.130836 0.869041
vt 0.133821 0.868767
vt 0.131074 0.868987
vt 0.134047 0.869309
vt 0.131316 0.868983
vt 0.134163 0.869885
vt 0.131551 0.869027
vt 0.134163 0.870474
vt 0.131772 0.869117
vt 0.134047 0.871051
vt 0.131971 0.869248
vt 0.133820 0.871595
vt 0.132139 0.869417
vt 0.133490 0.872083
vt 0.130304 0.873034
vt 0.132271 0.869616
vt 0.133071 0.872497
vt 0.129764 0.872811
vt 0.132361 0.869837
vt 0.132580 0.872820
vt 0.129276 0.872487
vt 0.132405 0.870072
vt 0.132036 0.873041
vt 0.128861 0.872073
vt 0.132403 0.870312
vt 0.131461 0.873151
vt 0.128536 0.871585
vt 0.132353 0.870547
vt 0.130877 0.873148
vt 0.128313 0.871042
vt 0.132258 0.870768
vt 0.131044 0.871403
vt 0.128201 0.870467
vt 0.132122 0.870967
vt 0.130808 0.871355
vt 0.128205 0.869882
vt 0.131949 0.871136
vt 0.130586 0.871262
vt 0.128323 0.869310
vt 0.131747 0.871268
vt 0.130386 0.871128
vt 0.128551 0.868772
vt 0.131523 0.871359
vt 0.130217 0.870958
vt 0.128878 0.868290
vt 0.131286 0.871404
vt 0.130085 0.870758
vt 0.129293 0.867882
vt 0.129994 0.870537
vt 0.129777 0.867560
vt 0.128200 0.867214
vt 0.138531 0.867214
vt 0.138531 0.877545
vt 0.128200 0.867214
vt 0.138531 0.867214
vt 0.138531 0.877545
vt 0.128200 0.867214
vt 0.138531 0.867214
vt 0.128200 0.867214
vt 0.138531 0.867214
vt 0.138531 0.877545
vt 0.128200 0.867214
vt 0.138531 0.867214
vt 0.138531 0.877545
vt 0.138531 0.867214
vt 0.128200 0.867214
vt 0.138531 0.867214
vt 0.138531 0.877545
vt 0.128200 0.867214
vt 0.138531 0.867214
vt 0.128200 0.867214
vt 0.138531 0.867214
vt 0.138531 0.877545
vt 0.138531 0.867214
vt 0.128200 0.867214
vt 0.138531 0.867214
vt 0.138531 0.877545
vt 0.128200 0.867214
vt 0.138531 0.867214
vt 0.138531 0.877545
vt 0.128200 0.867214
vt 0.138531 0.877545
vt 0.128200 0.867214
vt 0.138531 0.867214
vt 0.138531 0.877545
vt 0.128200 0.867214
vt 0.138531 0.867214
vt 0.138531 0.877545
vt 0.138531 0.877545
vt 0.128200 0.867214
vt 0.138531 0.867214
vt 0.138531 0.877545
vt 0.128200 0.867214
vt 0.138531 0.877545
vt 0.128200 0.867214
vt 0.138531 0.867214
vt 0.138531 0.877545
vt 0.138531 0.877545
vt 0.138531 0.867214
vt 0.128200 0.877545
vt 0.128200 0.877545
vt 0.128200 0.877545
vt 0.138531 0.867214
vt 0.128200 0.877545
vt 0.128200 0.867214
vt 0.138531 0.867214
vt 0.128200 0.877545
vt 0.128200 0.867214
vt 0.128200 0.877545
vt 0.138531 0.867214
vt 0.128200 0.877545
vt 0.128200 0.867214
vt 0.128200 0.877545
vt 0.128200 0.877545
vt 0.128200 0.877545
vt 0.138531 0.867214
vt 0.128200 0.877545
vt 0.138531 0.867214
vt 0.128200 0.877545
vt 0.128200 0.867214
vt 0.129928 0.873803
vt 0.138531 0.877545
vt 0.138531 0.877545
vn 0.0000 0.0000 1.0000
vn -0.0000 0.0000 -1.0000
vn 1.0000 -0.0000 -0.0000
vn 0.9808 -0.1951 -0.0000
vn -0.5556 -0.8315 0.0000
vn -0.3827 -0.9239 0.0000
vn 0.9808 0.1951 0.0000
vn -0.1951 -0.9808 0.0000
vn 0.9239 0.3827 0.0000
vn 0.0000 -1.0000 0.0000
vn 0.8315 0.5556 0.0000
vn 0.1951 -0.9808 0.0000
vn 0.7071 0.7071 0.0000
vn 0.3827 -0.9239 0.0000
vn 0.5556 0.8315 0.0000
vn 0.5556 -0.8315 0.0000
vn 0.3827 0.9239 0.0000
vn 0.7071 -0.7071 0.0000
vn 0.1951 0.9808 0.0000
vn 0.8315 -0.5556 0.0000
vn -0.0000 1.0000 0.0000
vn 0.9239 -0.3827 -0.0000
vn -0.1951 0.9808 0.0000
vn -0.3827 0.9239 0.0000
vn -0.5556 0.8315 0.0000
vn -0.7071 0.7071 0.0000
vn -0.8315 0.5556 0.0000
vn -0.9239 0.3827 0.0000
vn -0.9808 0.1951 0.0000
vn -1.0000 -0.0000 -0.0000
vn -0.9808 -0.1951 -0.0000
vn -0.9239 -0.3827 -0.0000
vn -0.8315 -0.5556 -0.0000
vn -0.7071 -0.7071 -0.0000
vn -0.9683 -0.2498 0.0000
vn -0.7208 -0.6931 0.0000
vn 0.9683 -0.2498 0.0000
vn 0.9683 0.2498 0.0000
vn -0.2686 -0.9632 0.0000
vn 0.2686 -0.9632 0.0000
vn 0.7208 -0.6931 0.0000
vn 0.7208 0.6931 0.0000
vn 0.2686 0.9632 0.0000
vn -0.7208 0.6931 0.0000
vn -0.9683 0.2498 0.0000
vn -0.2686 0.9632 0.0000
s 1
f 35/50/2 68/51/2 67/52/2
f 36/53/2 69/54/2 68/51/2
f 37/55/2 70/56/2 69/54/2
f 38/57/2 71/58/2 70/56/2
f 39/59/2 72/60/2 71/58/2
f 40/61/2 73/62/2 72/60/2
f 41/63/2 74/64/2 73/62/2
f 42/65/2 75/66/2 74/64/2
f 43/67/2 76/68/2 75/66/2
f 44/69/2 77/70/2 76/68/2
f 45/71/2 78/72/2 77/70/2
f 46/73/2 79/74/2 78/72/2
f 47/75/2 80/76/2 79/74/2
f 48/77/2 81/78/2 80/76/2
f 49/79/2 82/80/2 81/78/2
f 51/81/2 82/80/2 50/82/2
f 52/83/2 83/84/2 51/81/2
f 53/85/2 84/86/2 52/83/2
f 54/87/2 85/88/2 53/85/2
f 55/89/2 86/90/2 54/87/2
f 56/91/2 87/92/2 55/89/2
f 57/93/2 88/94/2 56/91/2
f 58/95/2 89/96/2 57/93/2
f 59/97/2 90/98/2 58/95/2
f 60/99/2 91/100/2 59/97/2
f 61/101/2 92/102/2 60/99/2
f 62/103/2 93/104/2 61/101/2
f 63/105/2 94/106/2 62/103/2
f 64/107/2 95/108/2 63/105/2
f 65/109/2 96/110/2 64/107/2
f 34/111/2 97/112/2 65/109/2
f 34/111/2 67/52/2 66/113/2
f 98/114/3 132/115/3 100/116/3
f 100/116/3 133/117/3 101/118/3
f 101/118/3 134/119/3 102/120/3
f 102/120/3 135/121/3 103/122/3
f 103/122/3 136/123/3 104/124/3
f 104/124/3 137/125/3 105/126/3
f 105/126/3 138/127/3 106/128/3
f 106/128/3 139/129/3 107/130/3
f 107/130/3 140/131/3 108/132/3
f 108/132/3 141/133/3 109/134/3
f 109/134/3 142/135/3 110/136/3
f 110/136/3 143/137/3 111/138/3
f 111/138/3 144/139/3 112/140/3
f 112/140/3 145/141/3 113/142/3
f 113/142/3 146/143/3 114/144/3
f 146/143/3 115/145/3 114/144/3
f 147/146/3 116/147/3 115/145/3
f 148/148/3 117/149/3 116/147/3
f 149/150/3 118/151/3 117/149/3
f 150/152/3 119/153/3 118/151/3
f 151/154/3 120/155/3 119/153/3
f 152/156/3 121/157/3 120/155/3
f 153/158/3 122/159/3 121/157/3
f 154/160/3 123/161/3 122/159/3
f 155/162/3 124/163/3 123/161/3
f 156/164/3 125/165/3 124/163/3
f 157/166/3 126/167/3 125/165/3
f 158/168/3 127/169/3 126/167/3
f 159/170/3 128/171/3 127/169/3
f 160/172/3 129/173/3 128/171/3
f 161/174/3 99/175/3 129/173/3
f 99/175/3 130/176/3 98/114/3
f 74/64/4 137/177/5 73/62/5
f 47/75/6 112/178/7 48/77/7
f 74/64/4 139/179/8 138/180/4
f 48/77/7 113/181/9 49/79/9
f 76/68/10 139/179/8 75/66/8
f 49/79/9 114/182/11 50/82/11
f 77/70/12 140/183/10 76/68/10
f 50/82/11 115/184/13 51/81/13
f 78/72/14 141/185/12 77/70/12
f 51/81/13 116/186/15 52/83/15
f 79/74/16 142/187/14 78/72/14
f 52/83/15 117/188/17 53/85/17
f 80/76/18 143/189/16 79/74/16
f 53/85/17 118/190/19 54/87/19
f 81/78/20 144/191/18 80/76/18
f 54/87/19 119/192/21 55/89/21
f 82/80/22 145/193/20 81/78/20
f 55/89/21 120/194/23 56/91/23
f 83/84/24 146/195/22 82/80/22
f 56/91/23 121/196/5 57/93/5
f 84/86/25 147/197/24 83/84/24
f 57/93/5 122/198/4 58/95/4
f 85/88/26 148/199/25 84/86/25
f 58/95/4 123/200/8 59/97/8
f 86/90/27 149/201/26 85/88/26
f 59/97/8 124/202/10 60/99/10
f 87/92/28 150/203/27 86/90/27
f 60/99/10 125/204/12 61/101/12
f 34/111/22 98/205/24 35/50/24
f 88/94/29 151/206/28 87/92/28
f 61/101/12 126/207/14 62/103/14
f 35/50/24 100/208/25 36/53/25
f 89/96/30 152/209/29 88/94/29
f 62/103/14 127/210/16 63/105/16
f 36/53/25 101/211/26 37/55/26
f 90/98/31 153/212/30 89/96/30
f 63/105/16 128/213/18 64/107/18
f 37/55/26 102/214/27 38/57/27
f 91/100/32 154/215/31 90/98/31
f 64/107/18 129/216/20 65/109/20
f 38/57/27 103/217/28 39/59/28
f 92/102/33 155/218/32 91/100/32
f 65/109/20 99/219/22 34/111/22
f 39/59/28 104/220/29 40/61/29
f 93/104/34 156/221/33 92/102/33
f 67/52/13 131/222/11 66/113/11
f 40/61/29 105/223/30 41/63/30
f 94/106/35 157/224/34 93/104/34
f 68/51/15 130/225/13 67/52/13
f 41/63/30 106/226/31 42/65/31
f 95/108/6 158/227/35 94/106/35
f 69/54/17 132/228/15 68/51/15
f 42/65/31 107/229/32 43/67/32
f 96/110/7 159/230/6 95/108/6
f 70/56/19 133/231/17 69/54/17
f 43/67/32 108/232/33 44/69/33
f 97/112/9 160/233/7 96/110/7
f 71/58/21 134/234/19 70/56/19
f 44/69/33 109/235/34 45/71/34
f 66/113/11 161/236/9 97/112/9
f 72/60/23 135/237/21 71/58/21
f 45/71/34 110/238/35 46/73/35
f 73/62/5 136/239/23 72/60/23
f 46/73/35 111/240/6 47/75/6
f 166/241/2 167/242/2 169/243/2
f 163/244/2 162/245/2 166/246/2
f 162/247/2 171/248/2 166/246/2
f 167/249/2 172/250/2 164/251/2
f 169/252/2 170/253/2 163/254/2
f 169/252/2 163/255/2 166/246/2
f 164/256/2 165/257/2 168/258/2
f 165/259/2 173/260/2 168/258/2
f 168/261/2 169/262/2 167/263/2
f 164/256/2 168/264/2 167/263/2
f 181/265/3 185/266/3 182/267/3
f 175/268/3 181/269/3 174/270/3
f 174/271/3 181/269/3 180/272/3
f 182/273/3 177/274/3 178/275/3
f 185/276/3 175/277/3 179/278/3
f 185/276/3 181/269/3 175/279/3
f 177/280/3 184/281/3 176/282/3
f 176/283/3 184/281/3 183/284/3
f 184/285/3 182/286/3 185/287/3
f 177/280/3 182/286/3 184/288/3
f 174/289/36 171/290/37 162/247/36
f 177/274/38 165/291/39 164/256/38
f 181/269/40 167/292/41 166/241/40
f 178/293/42 164/294/38 172/295/42
f 183/296/43 168/297/44 173/298/43
f 182/286/41 172/299/42 167/249/41
f 179/300/45 163/301/46 170/302/45
f 185/266/47 170/303/45 169/252/47
f 175/277/46 162/304/36 163/244/46
f 184/281/44 169/305/47 168/261/44
f 176/306/39 173/307/43 165/259/39
f 180/308/37 166/309/40 171/310/37
f 35/50/2 36/53/2 68/51/2
f 36/53/2 37/55/2 69/54/2
f 37/55/2 38/57/2 70/56/2
f 38/57/2 39/59/2 71/58/2
f 39/59/2 40/61/2 72/60/2
f 40/61/2 41/63/2 73/62/2
f 41/63/2 42/65/2 74/64/2
f 42/65/2 43/67/2 75/66/2
f 43/67/2 44/69/2 76/68/2
f 44/69/2 45/71/2 77/70/2
f 45/71/2 46/73/2 78/72/2
f 46/73/2 47/75/2 79/74/2
f 47/75/2 48/77/2 80/76/2
f 48/77/2 49/79/2 81/78/2
f 49/79/2 50/82/2 82/80/2
f 51/81/2 83/84/2 82/80/2
f 52/83/2 84/86/2 83/84/2
f 53/85/2 85/88/2 84/86/2
f 54/87/2 86/90/2 85/88/2
f 55/89/2 87/92/2 86/90/2
f 56/91/2 88/94/2 87/92/2
f 57/93/2 89/96/2 88/94/2
f 58/95/2 90/98/2 89/96/2
f 59/97/2 91/100/2 90/98/2
f 60/99/2 92/102/2 91/100/2
f 61/101/2 93/104/2 92/102/2
f 62/103/2 94/106/2 93/104/2
f 63/105/2 95/108/2 94/106/2
f 64/107/2 96/110/2 95/108/2
f 65/109/2 97/112/2 96/110/2
f 34/111/2 66/113/2 97/112/2
f 34/111/2 35/50/2 67/52/2
f 98/114/3 130/176/3 132/115/3
f 100/116/3 132/115/3 133/117/3
f 101/118/3 133/117/3 134/119/3
f 102/120/3 134/119/3 135/121/3
f 103/122/3 135/121/3 136/123/3
f 104/124/3 136/123/3 137/125/3
f 105/126/3 137/125/3 138/127/3
f 106/128/3 138/127/3 139/129/3
f 107/130/3 139/129/3 140/131/3
f 108/132/3 140/131/3 141/133/3
f 109/134/3 141/133/3 142/135/3
f 110/136/3 142/135/3 143/137/3
f 111/138/3 143/137/3 144/139/3
f 112/140/3 144/139/3 145/141/3
f 113/142/3 145/141/3 146/143/3
f 146/143/3 147/146/3 115/145/3
f 147/146/3 148/148/3 116/147/3
f 148/148/3 149/150/3 117/149/3
f 149/150/3 150/152/3 118/151/3
f 150/152/3 151/154/3 119/153/3
f 151/154/3 152/156/3 120/155/3
f 152/156/3 153/158/3 121/157/3
f 153/158/3 154/160/3 122/159/3
f 154/160/3 155/162/3 123/161/3
f 155/162/3 156/164/3 124/163/3
f 156/164/3 157/166/3 125/165/3
f 157/166/3 158/168/3 126/167/3
f 158/168/3 159/170/3 127/169/3
f 159/170/3 160/172/3 128/171/3
f 160/172/3 161/174/3 129/173/3
f 161/174/3 131/311/3 99/175/3
f 99/175/3 131/311/3 130/176/3
f 74/64/4 138/180/4 137/177/5
f 47/75/6 111/240/6 112/178/7
f 74/64/4 75/66/8 139/179/8
f 48/77/7 112/178/7 113/181/9
f 76/68/10 140/183/10 139/179/8
f 49/79/9 113/181/9 114/182/11
f 77/70/12 141/185/12 140/183/10
f 50/82/11 114/182/11 115/184/13
f 78/72/14 142/187/14 141/185/12
f 51/81/13 115/184/13 116/186/15
f 79/74/16 143/189/16 142/187/14
f 52/83/15 116/186/15 117/188/17
f 80/76/18 144/191/18 143/189/16
f 53/85/17 117/188/17 118/190/19
f 81/78/20 145/193/20 144/191/18
f 54/87/19 118/190/19 119/192/21
f 82/80/22 146/195/22 145/193/20
f 55/89/21 119/192/21 120/194/23
f 83/84/24 147/197/24 146/195/22
f 56/91/23 120/194/23 121/196/5
f 84/86/25 148/199/25 147/197/24
f 57/93/5 121/196/5 122/198/4
f 85/88/26 149/201/26 148/199/25
f 58/95/4 122/198/4 123/200/8
f 86/90/27 150/203/27 149/201/26
f 59/97/8 123/200/8 124/202/10
f 87/92/28 151/206/28 150/203/27
f 60/99/10 124/202/10 125/204/12
f 34/111/22 99/219/22 98/205/24
f 88/94/29 152/209/29 151/206/28
f 61/101/12 125/204/12 126/207/14
f 35/50/24 98/205/24 100/208/25
f 89/96/30 153/212/30 152/209/29
f 62/103/14 126/207/14 127/210/16
f 36/53/25 100/208/25 101/211/26
f 90/98/31 154/215/31 153/212/30
f 63/105/16 127/210/16 128/213/18
f 37/55/26 101/211/26 102/214/27
f 91/100/32 155/218/32 154/215/31
f 64/107/18 128/213/18 129/216/20
f 38/57/27 102/214/27 103/217/28
f 92/102/33 156/221/33 155/218/32
f 65/109/20 129/216/20 99/219/22
f 39/59/28 103/217/28 104/220/29
f 93/104/34 157/224/34 156/221/33
f 67/52/13 130/225/13 131/222/11
f 40/61/29 104/220/29 105/223/30
f 94/106/35 158/227/35 157/224/34
f 68/51/15 132/228/15 130/225/13
f 41/63/30 105/223/30 106/226/31
f 95/108/6 159/230/6 158/227/35
f 69/54/17 133/231/17 132/228/15
f 42/65/31 106/226/31 107/229/32
f 96/110/7 160/233/7 159/230/6
f 70/56/19 134/234/19 133/231/17
f 43/67/32 107/229/32 108/232/33
f 97/112/9 161/236/9 160/233/7
f 71/58/21 135/237/21 134/234/19
f 44/69/33 108/232/33 109/235/34
f 66/113/11 131/222/11 161/236/9
f 72/60/23 136/239/23 135/237/21
f 45/71/34 109/235/34 110/238/35
f 73/62/5 137/177/5 136/239/23
f 46/73/35 110/238/35 111/240/6
f 174/289/36 180/272/37 171/290/37
f 177/274/38 176/282/39 165/291/39
f 181/269/40 182/267/41 167/292/41
f 178/293/42 177/312/38 164/294/38
f 183/296/43 184/288/44 168/297/44
f 182/286/41 178/275/42 172/299/42
f 179/300/45 175/279/46 163/301/46
f 185/266/47 179/278/45 170/303/45
f 175/277/46 174/270/36 162/304/36
f 184/281/44 185/287/47 169/305/47
f 176/306/39 183/284/43 173/307/43
f 180/308/37 181/313/40 166/309/40
