# Blender v2.79 (sub 0) OBJ File: 'stage.blend'
# www.blender.org
v -0.005945 0.169122 -0.057351
v -0.137105 0.057407 -0.057351
v 0.131839 0.044989 -0.057351
v -0.030621 0.122496 -0.057392
v -0.083568 0.070851 -0.057392
v -0.066051 0.164116 -0.057351
v -0.134507 0.096067 -0.057351
v -0.036624 0.176440 -0.057351
v -0.140617 0.076540 -0.057351
v 0.142240 0.021499 -0.057351
v -0.005945 -0.169122 -0.057351
v -0.137105 -0.057407 -0.057351
v -0.110199 0.012216 -0.057351
v 0.146640 -0.000000 -0.057351
v 0.131839 -0.044989 -0.057351
v -0.030621 -0.122496 -0.057392
v -0.083568 -0.070851 -0.057392
v -0.041489 -0.000000 -0.057392
v 0.092260 -0.000000 -0.057392
v -0.066051 -0.164116 -0.057351
v -0.134507 -0.096067 -0.057351
v -0.036624 -0.176440 -0.057351
v -0.140617 -0.076540 -0.057351
v 0.142240 -0.021499 -0.057351
v -0.109917 -0.010182 -0.057351
v -0.020713 0.063348 -0.057505
v -0.026215 0.058834 -0.057505
v 0.032909 0.010684 -0.057505
v -0.024458 0.093471 -0.057522
v -0.054039 0.064295 -0.057522
v -0.024018 0.063073 -0.057505
v -0.026072 0.060959 -0.057505
v -0.022400 0.063750 -0.057505
v -0.026408 0.059886 -0.057505
v -0.021951 -0.064291 -0.057505
v -0.025837 -0.060868 -0.057505
v 0.004048 0.011488 -0.057505
v 0.036234 -0.000133 -0.057505
v -0.025395 -0.095394 -0.057522
v -0.055563 -0.068164 -0.057522
v -0.018599 -0.001072 -0.057522
v 0.069710 -0.001556 -0.057522
v -0.024301 -0.064095 -0.057505
v -0.025854 -0.062383 -0.057505
v -0.023150 -0.064577 -0.057505
v -0.026032 -0.061603 -0.057505
v 0.032909 -0.010950 -0.057505
v 0.003854 -0.014309 -0.057505
v 0.062837 0.016819 -0.057522
v 0.057283 -0.021322 -0.057522
vt 0.004763 0.197172
vt 0.546041 0.168224
vt 0.546723 0.201777
vt 0.004943 0.205999
vt 0.004171 0.168033
vt 0.004943 0.205999
vt 0.004548 0.186507
vt 0.546814 0.206190
vt 0.004943 0.205999
vt 0.546041 0.168224
vt 0.004943 0.205999
vt 0.004861 0.201984
vt 0.004289 0.173826
vt 0.004230 0.170900
vt 0.004171 0.168033
vt 0.004763 0.197172
vt 0.546041 0.168224
vt 0.004289 0.173826
vt 0.004754 0.196694
vt 0.004171 0.168033
vt 0.004548 0.186507
vt 0.004943 0.205999
vt 0.546041 0.168224
vt 0.004171 0.168033
vt 0.004943 0.205999
vt 0.546723 0.201777
vt 0.004861 0.201984
vt 0.004230 0.170900
vt 0.004171 0.168033
vt 0.546814 0.206190
vt 0.006058 0.637208
vt 0.005815 0.638009
vt 0.005960 0.637962
vt 0.005475 0.632795
vt 0.004761 0.631707
vt 0.004716 0.632476
vt 0.005802 0.627025
vt 0.006054 0.627929
vt 0.005955 0.627079
vt 0.006989 0.593956
vt 0.653781 0.594295
vt 0.653781 0.598423
vt 0.006989 0.598908
vt 0.006989 0.598812
vt 0.006989 0.588967
vt 0.006989 0.588755
vt 0.653781 0.603242
vt 0.006989 0.599049
vt 0.006989 0.602843
vt 0.006989 0.603497
vt 0.653781 0.585029
vt 0.653781 0.586558
vt 0.006989 0.584191
vt 0.653781 0.624149
vt 0.006989 0.623620
vt 0.006989 0.623038
vt 0.006989 0.607043
vt 0.653781 0.609864
vt 0.006989 0.610696
vt 0.006989 0.611356
vt 0.653781 0.613766
vt 0.006989 0.611589
vt 0.006989 0.614820
vt 0.653781 0.621992
vt 0.006989 0.622308
vt 0.006989 0.610855
vt 0.006989 0.624008
vt 0.007214 0.630252
vt 0.004855 0.630867
vt 0.005880 0.626951
vt 0.006055 0.627531
vt 0.006067 0.627736
vt 0.004760 0.633247
vt 0.005889 0.638082
vt 0.004851 0.634091
vt 0.006052 0.637587
vt 0.006067 0.637396
vt 0.004171 0.168033
vn 0.0005 -0.0005 1.0000
vn 0.0007 0.0004 1.0000
vn -0.0008 -0.0002 1.0000
vn -0.0005 -0.0005 1.0000
vn -0.0002 -0.0008 1.0000
vn 0.0007 -0.0002 1.0000
vn 0.0003 -0.0007 1.0000
vn 0.0007 0.0001 1.0000
vn -0.0007 -0.0003 1.0000
vn 0.0005 0.0005 1.0000
vn 0.0007 -0.0004 1.0000
vn -0.0008 0.0002 1.0000
vn -0.0005 0.0006 1.0000
vn -0.0002 0.0008 1.0000
vn 0.0007 0.0002 1.0000
vn 0.0003 0.0007 1.0000
vn 0.0007 -0.0001 1.0000
vn -0.0007 0.0003 1.0000
vn 0.0006 0.0000 1.0000
vn 0.0000 -0.0000 1.0000
vn -0.0006 0.0006 1.0000
vn -0.0006 0.0002 1.0000
vn 0.0001 0.0006 1.0000
vn -0.0007 -0.0004 1.0000
vn -0.0008 0.0000 1.0000
vn 0.0005 0.0002 1.0000
vn 0.0005 -0.0002 1.0000
vn -0.0007 0.0004 1.0000
vn -0.0002 -0.0006 1.0000
vn 0.0001 -0.0006 1.0000
vn -0.0006 -0.0001 1.0000
vn -0.0002 0.0006 1.0000
vn -0.0007 -0.0001 1.0000
vn -0.0006 0.0005 1.0000
vn 0.0006 -0.0004 1.0000
vn -0.0005 -0.0006 1.0000
vn -0.0005 0.0005 1.0000
vn -0.0006 -0.0004 1.0000
vn -0.0006 0.0004 1.0000
vn 0.0006 -0.0006 1.0000
vn 0.0006 0.0007 1.0000
s off
f 6/1/1 5/2/1 4/3/1
f 13/4/2 5/2/2 2/5/2
f 14/6/3 10/7/3 19/8/3
f 3/9/4 4/10/4 19/8/4
f 1/11/5 8/12/5 4/3/5
f 5/2/6 7/13/6 9/14/6
f 4/3/7 8/12/7 6/1/7
f 9/14/8 2/5/8 5/2/8
f 19/8/9 10/7/9 3/15/9
f 20/16/10 17/17/10 21/18/10
f 17/17/11 25/19/11 12/20/11
f 14/6/12 19/8/12 24/21/12
f 15/22/13 16/23/13 11/24/13
f 11/25/14 16/26/14 22/27/14
f 17/17/15 23/28/15 21/18/15
f 16/26/16 20/16/16 22/27/16
f 23/28/17 17/17/17 12/20/17
f 19/8/18 15/29/18 24/21/18
f 25/19/19 18/30/19 13/4/19
f 27/31/20 26/32/20 31/33/20
f 37/34/20 47/35/20 38/36/20
f 35/37/20 36/38/20 43/39/20
f 31/40/21 29/41/21 30/42/21
f 34/43/22 32/44/22 30/42/22
f 33/45/23 26/46/23 29/41/23
f 41/47/24 27/48/24 30/42/24
f 37/49/25 41/47/25 48/50/25
f 42/51/26 49/52/26 28/53/26
f 42/54/27 38/55/27 47/56/27
f 36/57/28 41/47/28 40/58/28
f 46/59/22 36/57/22 40/58/22
f 43/60/4 40/58/4 39/61/4
f 45/62/29 43/60/29 39/61/29
f 35/63/1 50/64/1 47/65/1
f 45/62/30 39/61/30 35/63/30
f 46/59/31 40/58/31 44/66/31
f 38/55/26 42/54/26 28/67/26
f 48/68/20 35/37/20 47/69/20
f 35/37/20 43/39/20 45/70/20
f 43/39/20 36/38/20 44/71/20
f 44/71/20 36/38/20 46/72/20
f 36/38/20 35/37/20 48/68/20
f 48/68/20 47/35/20 37/34/20
f 28/73/20 37/34/20 38/36/20
f 33/45/32 29/41/32 31/40/32
f 34/43/33 30/42/33 27/48/33
f 33/74/20 31/33/20 26/32/20
f 26/32/20 37/34/20 28/75/20
f 27/31/20 37/34/20 26/32/20
f 27/31/20 32/76/20 34/77/20
f 32/76/20 27/31/20 31/33/20
f 31/40/34 30/42/34 32/44/34
f 49/52/10 26/46/10 28/53/10
f 50/64/35 42/54/35 47/65/35
f 6/1/1 7/13/1 5/2/1
f 13/4/2 18/30/2 5/2/2
f 3/9/36 1/78/36 4/10/36
f 20/16/10 16/26/10 17/17/10
f 17/17/11 18/30/11 25/19/11
f 15/22/37 19/8/37 16/23/37
f 41/47/38 37/49/38 27/48/38
f 36/57/39 48/50/39 41/47/39
f 43/60/4 44/66/4 40/58/4
f 35/63/40 39/61/40 50/64/40
f 49/52/41 29/41/41 26/46/41
v -0.030786 0.133736 -0.055634
v -0.038754 0.130557 -0.055634
v -0.087851 0.077181 -0.055634
v -0.089516 0.070022 -0.055634
v -0.087330 0.065349 -0.055634
v -0.054801 0.014311 -0.055634
v 0.096004 0.014618 -0.055634
v 0.085752 0.031654 -0.055634
v -0.024917 0.131913 -0.055634
v -0.021322 0.088678 -0.055634
v -0.025882 0.088092 -0.055634
v -0.047378 0.066795 -0.055634
v -0.047608 0.062095 -0.055634
v -0.015663 0.014007 -0.055634
v 0.058144 0.008868 -0.055634
v 0.053486 0.017060 -0.055634
v -0.051738 0.007155 -0.055634
v -0.030786 -0.133736 -0.055634
v -0.038754 -0.130557 -0.055634
v -0.087851 -0.077181 -0.055634
v -0.089516 -0.070022 -0.055634
v -0.087330 -0.065349 -0.055634
v -0.054801 -0.014311 -0.055634
v 0.096004 -0.014618 -0.055634
v 0.085752 -0.031654 -0.055634
v -0.024917 -0.131913 -0.055634
v -0.051007 0.000000 -0.055634
v 0.098692 0.000000 -0.055634
v -0.021322 -0.088678 -0.055634
v -0.025882 -0.088092 -0.055634
v -0.047378 -0.066795 -0.055634
v -0.047608 -0.062095 -0.055634
v -0.015663 -0.014007 -0.055634
v 0.058144 -0.008868 -0.055634
v 0.053486 -0.017061 -0.055634
v -0.013265 0.000000 -0.055634
v 0.058824 0.000000 -0.055634
v -0.051738 -0.007155 -0.055634
v -0.030786 0.133736 0.053484
v -0.038754 0.130557 0.053484
v -0.087851 0.077181 0.053484
v -0.089516 0.070022 0.053484
v -0.087330 0.065349 0.053484
v -0.054801 0.014311 0.053484
v 0.096004 0.014618 0.053484
v 0.085752 0.031654 0.053484
v -0.024917 0.131913 0.053484
v -0.021322 0.088678 0.053484
v -0.025882 0.088092 0.053484
v -0.047378 0.066795 0.053484
v -0.047608 0.062095 0.053484
v -0.015663 0.014007 0.053484
v 0.058144 0.008868 0.053484
v 0.053486 0.017060 0.053484
v -0.051738 0.007155 0.053484
v -0.030786 -0.133736 0.053484
v -0.038754 -0.130557 0.053484
v -0.087851 -0.077181 0.053484
v -0.089516 -0.070022 0.053484
v -0.087330 -0.065349 0.053484
v -0.054801 -0.014311 0.053484
v 0.096004 -0.014618 0.053484
v 0.085752 -0.031654 0.053484
v -0.024917 -0.131913 0.053484
v -0.051007 -0.000000 0.053484
v 0.098692 -0.000000 0.053484
v -0.021322 -0.088678 0.053484
v -0.025882 -0.088092 0.053484
v -0.047378 -0.066795 0.053484
v -0.047608 -0.062095 0.053484
v -0.015663 -0.014007 0.053484
v 0.058144 -0.008868 0.053484
v 0.053486 -0.017061 0.053484
v -0.013265 -0.000000 0.053484
v 0.058824 -0.000000 0.053484
v -0.051738 -0.007155 0.053484
vt 0.810738 0.914560
vt 0.809472 0.914408
vt 0.810738 0.914408
vt 0.810738 0.914723
vt 0.809472 0.914560
vt 0.810738 0.906538
vt 0.809472 0.906850
vt 0.809472 0.906538
vt 0.809618 0.903148
vt 0.810576 0.906447
vt 0.809618 0.906447
vt 0.809472 0.914257
vt 0.810738 0.914257
vt 0.809618 0.917869
vt 0.810576 0.918016
vt 0.809618 0.918016
vt 0.810738 0.917965
vt 0.809472 0.917785
vt 0.810738 0.917785
vt 0.809618 0.906747
vt 0.810576 0.907030
vt 0.809618 0.907030
vt 0.810738 0.907163
vt 0.810738 0.906850
vt 0.809618 0.916906
vt 0.810576 0.917869
vt 0.809472 0.914093
vt 0.810738 0.914093
vt 0.809472 0.916259
vt 0.810738 0.916259
vt 0.810738 0.906120
vt 0.809472 0.906120
vt 0.810738 0.911032
vt 0.809472 0.910851
vt 0.810738 0.910851
vt 0.809618 0.916756
vt 0.810576 0.916906
vt 0.809618 0.910912
vt 0.810576 0.911059
vt 0.809618 0.911059
vt 0.809472 0.916105
vt 0.810738 0.916105
vt 0.810738 0.912557
vt 0.809472 0.911032
vt 0.809618 0.907614
vt 0.810576 0.910912
vt 0.810576 0.912023
vt 0.809618 0.912023
vt 0.810738 0.915996
vt 0.809472 0.914723
vt 0.809618 0.914917
vt 0.810576 0.916756
vt 0.810738 0.912712
vt 0.809472 0.912557
vt 0.810576 0.907314
vt 0.809618 0.907314
vt 0.810576 0.906747
vt 0.810576 0.912173
vt 0.809618 0.912173
vt 0.809472 0.915996
vt 0.810576 0.914464
vt 0.810576 0.914917
vt 0.809472 0.912820
vt 0.810738 0.912820
vt 0.810738 0.907581
vt 0.809472 0.907163
vt 0.809472 0.902979
vt 0.810738 0.902979
vt 0.809472 0.912712
vt 0.810576 0.907614
vt 0.809472 0.902849
vt 0.810738 0.902849
vt 0.810738 0.910722
vt 0.809472 0.907581
vt 0.809618 0.914011
vt 0.810576 0.914011
vt 0.809472 0.910722
vt 0.809618 0.914464
vt 0.809618 0.914464
vt 0.810738 0.914560
vt 0.810738 0.914408
vt 0.809618 0.916756
vt 0.810738 0.914560
vt 0.809618 0.914917
vt 0.809618 0.916756
vt 0.810738 0.915996
vt 0.810738 0.914723
vt 0.809618 0.916756
vt 0.810738 0.916105
vt 0.810738 0.915996
vt 0.809618 0.917869
vt 0.810738 0.916105
vt 0.809618 0.916906
vt 0.809618 0.910912
vt 0.809618 0.911059
vt 0.810738 0.911032
vt 0.810738 0.916259
vt 0.809618 0.918016
vt 0.810738 0.917785
vt 0.810738 0.902849
vt 0.810738 0.910851
vt 0.810738 0.907581
vt 0.810738 0.906538
vt 0.810738 0.906120
vt 0.809618 0.906747
vt 0.810738 0.906850
vt 0.810738 0.906538
vt 0.809618 0.907314
vt 0.810738 0.906850
vt 0.809618 0.907030
vt 0.809618 0.907614
vt 0.810738 0.907163
vt 0.809618 0.907314
vt 0.809618 0.910912
vt 0.809618 0.907614
vt 0.810738 0.910722
vt 0.809618 0.911059
vt 0.810738 0.912557
vt 0.810738 0.911032
vt 0.810738 0.912712
vt 0.810738 0.912557
vt 0.809618 0.912173
vt 0.810738 0.912712
vt 0.809618 0.912023
vt 0.809618 0.914011
vt 0.810738 0.912820
vt 0.809618 0.912173
vt 0.810738 0.914257
vt 0.810738 0.914093
vt 0.809618 0.914464
vt 0.810738 0.914257
vt 0.809618 0.914011
vt 0.809618 0.914917
vt 0.810738 0.914723
vt 0.809618 0.916906
vt 0.809618 0.906447
vt 0.809618 0.906747
vt 0.810738 0.902979
vt 0.810738 0.906120
vt 0.809618 0.907030
vt 0.810738 0.907163
vt 0.810738 0.907581
vt 0.810738 0.910851
vt 0.809618 0.912023
vt 0.810738 0.912820
vt 0.810738 0.914093
vt 0.810738 0.914408
vt 0.810576 0.914464
vt 0.809472 0.914093
vt 0.809472 0.914257
vt 0.810576 0.914011
vt 0.809472 0.912820
vt 0.809472 0.914093
vt 0.810576 0.912173
vt 0.809472 0.912712
vt 0.809472 0.912820
vt 0.810576 0.912023
vt 0.809472 0.912557
vt 0.809472 0.912712
vt 0.810576 0.911059
vt 0.809472 0.912557
vt 0.810576 0.912023
vt 0.809472 0.907581
vt 0.810576 0.907614
vt 0.810576 0.907314
vt 0.809472 0.911032
vt 0.810576 0.910912
vt 0.809472 0.910851
vt 0.810576 0.907614
vt 0.809472 0.910722
vt 0.809472 0.902979
vt 0.810576 0.906447
vt 0.810576 0.903148
vt 0.810576 0.907314
vt 0.809472 0.906850
vt 0.809472 0.907163
vt 0.809472 0.906538
vt 0.809472 0.906850
vt 0.810576 0.907030
vt 0.809472 0.906120
vt 0.809472 0.906538
vt 0.810576 0.906747
vt 0.809472 0.902979
vt 0.809472 0.906120
vt 0.810576 0.917869
vt 0.809472 0.916259
vt 0.810576 0.918016
vt 0.810576 0.916906
vt 0.809472 0.916105
vt 0.810576 0.918016
vt 0.810576 0.917869
vt 0.809472 0.916259
vt 0.810576 0.916756
vt 0.809472 0.916105
vt 0.810576 0.916906
vt 0.809472 0.914723
vt 0.809472 0.915996
vt 0.810576 0.916756
vt 0.809472 0.914560
vt 0.809472 0.914723
vt 0.810576 0.914464
vt 0.809472 0.914560
vt 0.810576 0.914917
vt 0.810576 0.914011
vt 0.810576 0.914011
vt 0.809472 0.917785
vt 0.810576 0.912173
vt 0.810576 0.912023
vt 0.809472 0.911032
vt 0.809472 0.917965
vt 0.810576 0.911059
vt 0.809472 0.907163
vt 0.810576 0.907030
vt 0.810576 0.906747
vt 0.810576 0.906447
vt 0.809472 0.902849
vt 0.809472 0.914408
vt 0.809472 0.915996
vt 0.810576 0.914917
vt 0.809472 0.914408
vt 0.809472 0.907581
vt 0.810576 0.903148
vt 0.809472 0.917965
vn -0.9948 0.1016 0.0000
vn -0.9193 0.3936 0.0000
vn 0.9835 -0.1809 -0.0000
vn -0.6915 0.7223 0.0000
vn -0.9948 -0.1016 -0.0000
vn 0.1275 0.9918 0.0000
vn -0.3706 -0.9288 0.0000
vn -0.9971 0.0764 0.0000
vn 0.9835 0.1809 0.0000
vn 0.7038 0.7104 0.0000
vn -0.9193 -0.3936 -0.0000
vn -0.7360 -0.6770 0.0000
vn 0.8568 -0.5156 -0.0000
vn -0.3706 0.9288 0.0000
vn 0.9988 0.0490 0.0000
vn 0.1275 -0.9918 0.0000
vn -0.9740 -0.2266 0.0000
vn -0.7360 0.6770 0.0000
vn -0.6915 -0.7223 0.0000
vn 0.7038 -0.7104 0.0000
vn -0.8433 0.5375 0.0000
vn 0.8330 -0.5533 -0.0000
vn -0.9740 0.2266 0.0000
vn -0.9971 -0.0764 -0.0000
vn -0.8693 0.4943 0.0000
vn 0.9988 -0.0490 -0.0000
vn -0.9058 0.4236 0.0000
vn 0.9857 -0.1688 -0.0000
vn -0.8433 -0.5375 0.0000
vn 0.8568 0.5156 0.0000
vn 0.6714 -0.7411 0.0000
vn -0.9058 -0.4236 0.0000
vn -0.8693 -0.4943 0.0000
vn 0.2967 -0.9550 0.0000
vn 0.6714 0.7411 0.0000
vn 0.8330 0.5533 0.0000
vn 0.2967 0.9550 0.0000
vn 0.9857 0.1688 0.0000
vn 0.0000 -0.0000 -1.0000
vn -0.0000 0.0000 1.0000
s off
f 88/79/42 115/80/42 77/81/42
f 73/82/43 126/83/43 88/79/43
f 74/84/44 116/85/44 112/86/44
f 79/87/45 123/88/45 85/89/45
f 77/81/46 105/90/46 67/91/46
f 80/92/47 117/93/47 79/94/47
f 68/95/48 107/96/48 69/97/48
f 84/98/49 125/99/49 87/100/49
f 57/101/50 116/85/50 78/102/50
f 81/103/51 118/104/51 80/92/51
f 67/91/52 94/105/52 56/106/52
f 69/97/53 108/107/53 70/108/53
f 75/109/54 112/86/54 113/110/54
f 52/111/55 89/112/55 51/113/55
f 82/114/56 119/115/56 81/103/56
f 60/116/57 99/117/57 61/118/57
f 70/108/58 109/119/58 71/120/58
f 53/121/59 90/122/59 52/111/59
f 66/123/60 98/124/60 60/116/60
f 61/118/61 100/125/61 62/126/61
f 72/127/62 111/128/62 73/82/62
f 83/129/63 120/130/63 82/114/63
f 54/131/64 91/132/64 53/121/64
f 87/100/65 103/133/65 65/134/65
f 85/89/66 122/135/66 84/98/66
f 62/126/67 101/136/67 63/137/67
f 71/120/68 110/138/68 72/127/68
f 83/129/69 124/139/69 121/140/69
f 56/106/70 93/141/70 55/142/70
f 58/143/71 95/144/71 57/101/71
f 75/109/72 114/145/72 76/146/72
f 55/142/73 92/147/73 54/131/73
f 65/134/74 104/148/74 66/123/74
f 76/146/75 106/149/75 68/150/75
f 59/151/76 96/152/76 58/143/76
f 64/153/77 101/136/77 102/154/77
f 51/113/78 97/155/78 59/151/78
f 86/156/79 102/154/79 124/139/79
f 77/157/80 83/158/80 88/159/80
f 83/160/80 73/161/80 88/162/80
f 73/163/80 82/164/80 72/165/80
f 72/166/80 81/167/80 71/168/80
f 81/169/80 70/170/80 71/171/80
f 51/172/80 60/173/80 61/174/80
f 69/175/80 80/176/80 68/177/80
f 68/177/80 80/176/80 76/178/80
f 60/179/80 59/180/80 58/143/80
f 75/109/80 84/181/80 74/182/80
f 74/183/80 87/184/80 78/185/80
f 87/186/80 57/187/80 78/188/80
f 65/189/80 58/190/80 57/191/80
f 66/192/80 60/179/80 58/143/80
f 59/193/80 60/179/80 51/194/80
f 52/195/80 62/196/80 53/197/80
f 53/121/80 62/198/80 54/199/80
f 62/200/80 55/201/80 54/202/80
f 63/203/80 56/204/80 55/205/80
f 56/106/80 64/206/80 67/207/80
f 64/208/80 77/209/80 67/210/80
f 77/157/80 86/211/80 83/158/80
f 83/160/80 82/212/80 73/161/80
f 72/166/80 82/213/80 81/167/80
f 80/176/80 69/175/80 81/169/80
f 80/176/80 79/214/80 76/178/80
f 85/215/80 75/216/80 79/214/80
f 85/215/80 84/217/80 75/216/80
f 74/183/80 84/218/80 87/184/80
f 87/186/80 65/219/80 57/187/80
f 65/189/80 66/220/80 58/190/80
f 69/175/80 70/170/80 81/169/80
f 52/221/80 51/172/80 61/174/80
f 52/195/80 61/222/80 62/196/80
f 62/200/80 63/223/80 55/201/80
f 63/203/80 64/224/80 56/204/80
f 64/208/80 86/225/80 77/209/80
f 75/216/80 76/178/80 79/214/80
f 105/226/81 102/227/81 94/228/81
f 94/229/81 101/230/81 93/231/81
f 93/232/81 100/233/81 92/234/81
f 92/235/81 100/236/81 91/237/81
f 100/238/81 90/239/81 91/240/81
f 95/241/81 96/242/81 104/243/81
f 89/244/81 99/245/81 97/246/81
f 97/246/81 98/247/81 96/248/81
f 106/249/81 114/250/81 123/251/81
f 95/252/81 125/253/81 116/254/81
f 116/85/81 125/255/81 112/256/81
f 112/257/81 122/258/81 113/259/81
f 113/260/81 123/261/81 114/262/81
f 99/245/81 98/247/81 97/246/81
f 117/263/81 118/264/81 106/265/81
f 118/266/81 119/267/81 107/268/81
f 108/269/81 119/267/81 109/270/81
f 119/271/81 110/272/81 109/273/81
f 110/138/81 120/274/81 111/275/81
f 111/276/81 121/277/81 126/278/81
f 121/279/81 115/280/81 126/281/81
f 124/282/81 102/227/81 115/283/81
f 119/267/81 108/284/81 107/268/81
f 94/229/81 102/285/81 101/230/81
f 93/232/81 101/286/81 100/233/81
f 100/238/81 99/287/81 90/239/81
f 118/264/81 107/288/81 106/265/81
f 89/244/81 90/289/81 99/245/81
f 103/290/81 95/241/81 104/243/81
f 95/252/81 103/291/81 125/253/81
f 112/257/81 125/292/81 122/258/81
f 113/260/81 122/293/81 123/261/81
f 117/294/81 106/249/81 123/251/81
f 102/227/81 105/295/81 115/283/81
f 119/271/81 120/296/81 110/272/81
f 111/276/81 120/297/81 121/277/81
f 121/279/81 124/298/81 115/280/81
f 98/247/81 104/299/81 96/248/81
f 88/79/42 126/83/42 115/80/42
f 73/82/43 111/128/43 126/83/43
f 74/84/44 78/102/44 116/85/44
f 79/87/45 117/300/45 123/88/45
f 77/81/46 115/80/46 105/90/46
f 80/92/47 118/104/47 117/93/47
f 68/95/48 106/301/48 107/96/48
f 84/98/49 122/135/49 125/99/49
f 57/101/50 95/144/50 116/85/50
f 81/103/51 119/115/51 118/104/51
f 67/91/52 105/90/52 94/105/52
f 69/97/53 107/96/53 108/107/53
f 75/109/54 74/84/54 112/86/54
f 52/111/55 90/122/55 89/112/55
f 82/114/56 120/130/56 119/115/56
f 60/116/57 98/124/57 99/117/57
f 70/108/58 108/107/58 109/119/58
f 53/121/59 91/132/59 90/122/59
f 66/123/60 104/148/60 98/124/60
f 61/118/61 99/117/61 100/125/61
f 72/127/62 110/138/62 111/128/62
f 83/129/63 121/140/63 120/130/63
f 54/131/64 92/147/64 91/132/64
f 87/100/65 125/99/65 103/133/65
f 85/89/66 123/88/66 122/135/66
f 62/126/67 100/125/67 101/136/67
f 71/120/68 109/119/68 110/138/68
f 83/129/69 86/156/69 124/139/69
f 56/106/70 94/105/70 93/141/70
f 58/143/71 96/152/71 95/144/71
f 75/109/72 113/110/72 114/145/72
f 55/142/73 93/141/73 92/147/73
f 65/134/74 103/133/74 104/148/74
f 76/146/75 114/145/75 106/149/75
f 59/151/76 97/155/76 96/152/76
f 64/153/77 63/137/77 101/136/77
f 51/113/78 89/112/78 97/155/78
f 86/156/79 64/153/79 102/154/79
