# Blender v2.79 (sub 0) OBJ File: 'stage.blend'
# www.blender.org
v -8.077053 3.914465 0.458198
v -7.432703 5.019250 0.458198
v -8.077053 3.914465 -0.458198
v -7.432703 5.019250 -0.458198
v -6.474155 3.714203 -0.458198
v -6.474154 3.714203 0.458198
v 8.077053 3.914465 0.458198
v 7.432703 5.019250 0.458198
v 8.077053 3.914465 -0.458198
v 7.432703 5.019250 -0.458198
v 6.463368 3.719268 0.458198
v 6.463369 3.719268 -0.458198
v 0.000796 -7.423043 -0.458198
v 0.661410 -8.961527 0.458198
v 0.661407 -8.961530 -0.458198
v 0.000795 -7.423040 0.458198
v -0.660475 -8.963148 -0.458198
v -0.660476 -8.963147 0.458198
v 6.359154 3.842443 -0.458198
v 6.211870 3.914465 -0.458198
v -6.231504 3.914465 -0.458198
v -6.376910 3.837894 -0.458198
v -6.376909 3.837894 0.458198
v -6.231504 3.914465 0.458198
v 6.211870 3.914465 0.458198
v 6.359153 3.842443 0.458198
v -0.162663 -7.382576 0.458198
v -0.325003 -7.256702 0.458198
v -6.495208 3.401425 0.458198
v -6.513713 3.563785 0.458198
v -6.513714 3.563785 -0.458198
v -6.495209 3.401425 -0.458198
v -0.325002 -7.256706 -0.458198
v -0.162662 -7.382579 -0.458198
v 6.510164 3.565548 -0.458198
v 6.489650 3.391700 -0.458198
v 0.319666 -7.268544 -0.458198
v 0.161438 -7.387377 -0.458198
v 0.161437 -7.387375 0.458198
v 0.319665 -7.268542 0.458198
v 6.489649 3.391700 0.458198
v 6.510163 3.565548 0.458198
vn -0.4981 0.8671 0.0000
vn -0.8638 0.5038 0.0000
vn 0.0000 0.0000 -1.0000
vn 0.0000 0.0000 1.0000
vn -0.1240 -0.9923 0.0000
vn -0.6145 -0.7890 -0.0000
vn -0.7634 -0.6459 -0.0000
vn -0.6145 -0.7889 -0.0000
vn 0.8638 0.5038 0.0000
vn -0.8017 0.5978 -0.0000
vn 0.1201 -0.9928 0.0000
vn -0.9960 -0.0889 -0.0000
vn -0.9567 -0.2912 -0.0000
vn 0.9974 -0.0718 -0.0000
vn 0.9671 -0.2543 -0.0000
vn 0.5010 -0.8655 0.0000
vn -0.4999 -0.8661 0.0000
vn 0.7861 -0.6181 -0.0000
vn 0.6401 -0.7683 -0.0000
vn 0.2400 -0.9708 -0.0000
vn -0.2255 -0.9743 0.0000
vn -0.2254 -0.9743 -0.0000
vn 0.0000 1.0000 0.0000
vn 0.0121 0.9999 -0.0000
vn 0.4360 0.9000 -0.0000
vn 0.7531 0.6579 -0.0000
vn 0.9495 0.3137 -0.0000
vn -0.8666 -0.4991 -0.0000
vn -0.4181 0.9084 -0.0000
vn -0.7481 0.6636 -0.0000
vn -0.9489 0.3156 -0.0000
vn 0.8666 -0.4991 -0.0000
s 1
f 2//1 3//2 1//2
f 3//3 4//3 5//3
f 23//4 2//4 6//4
f 5//5 1//5 3//5
f 17//3 34//3 13//3
f 19//6 11//7 26//8
f 19//3 10//3 12//3
f 6//4 2//4 1//4
f 9//9 8//9 7//9
f 9//3 12//3 10//3
f 11//10 10//10 12//10
f 7//11 12//11 9//11
f 15//3 13//3 38//3
f 11//4 7//4 8//4
f 42//4 7//4 11//4
f 42//12 12//13 35//12
f 14//4 16//4 18//4
f 31//14 6//15 30//14
f 1//4 30//4 6//4
f 15//3 17//3 13//3
f 14//16 17//17 15//16
f 5//3 4//3 22//3
f 22//3 4//3 21//3
f 4//3 20//3 21//3
f 20//3 10//3 19//3
f 5//18 23//19 6//18
f 22//19 24//20 23//19
f 21//20 25//21 24//20
f 20//22 26//8 25//21
f 4//1 8//23 10//23
f 11//4 8//4 26//4
f 26//4 8//4 25//4
f 25//4 2//4 24//4
f 24//4 2//4 23//4
f 18//4 16//4 27//4
f 18//4 27//4 28//4
f 28//4 1//4 18//4
f 1//4 29//4 30//4
f 13//24 27//25 16//24
f 27//25 33//26 28//26
f 28//26 32//27 29//27
f 32//27 30//14 29//27
f 3//28 18//17 1//28
f 3//3 5//3 31//3
f 3//3 31//3 32//3
f 3//3 33//3 17//3
f 17//3 33//3 34//3
f 16//24 38//29 13//24
f 39//29 37//30 38//29
f 40//30 36//31 37//30
f 41//31 35//12 36//31
f 16//4 14//4 39//4
f 39//4 14//4 40//4
f 40//4 7//4 41//4
f 41//4 7//4 42//4
f 9//32 14//16 15//16
f 9//3 35//3 12//3
f 9//3 36//3 35//3
f 9//3 37//3 36//3
f 15//3 38//3 37//3
f 2//1 4//1 3//2
f 5//5 6//5 1//5
f 19//6 12//7 11//7
f 9//9 10//9 8//9
f 11//10 8//10 10//10
f 7//11 11//11 12//11
f 42//12 11//13 12//13
f 31//14 5//15 6//15
f 14//16 18//17 17//17
f 4//3 10//3 20//3
f 5//18 22//19 23//19
f 22//19 21//20 24//20
f 21//20 20//22 25//21
f 20//22 19//6 26//8
f 4//1 2//1 8//23
f 25//4 8//4 2//4
f 28//4 29//4 1//4
f 13//24 34//25 27//25
f 27//25 34//25 33//26
f 28//26 33//26 32//27
f 32//27 31//14 30//14
f 3//28 17//17 18//17
f 3//3 32//3 33//3
f 16//24 39//29 38//29
f 39//29 40//30 37//30
f 40//30 41//31 36//31
f 41//31 42//12 35//12
f 40//4 14//4 7//4
f 9//32 7//32 14//16
f 9//3 15//3 37//3
